<svg width="100" height="100" viewBox="0 0 100 100" fill="none" xmlns="http://www.w3.org/2000/svg">
<path d="M0 0H100V100H0V0Z" fill="#D1E7FF"/>
<path d="M100 38.5C83.7297 27.9173 25.9004 17.1234 0 14V100L100 99.5V38.5Z" fill="#F4F7FC"/>
<path d="M98.0392 50L0 58.5C17.1667 52.5 54.2 36.9 65 22.5L93 34.5C93 53.5 91.1765 43.5 98.0392 50Z" fill="#D1E7FF"/>
<path d="M0 58.5C52.766 51.6763 88.6525 20.9304 100 14V100H0V58.5Z" fill="#F4F7FC"/>
<path d="M44.1176 100C55.3922 100 74.5098 95.0172 100 83V100H44.1176Z" fill="#D1E7FF"/>
<path d="M55.8824 100C44.6078 100 25.4902 95.0172 0 83V100H55.8824Z" fill="#D1E7FF"/>
<path d="M37.1569 13.485C35.7294 13.7188 34.4575 11.9258 34 11C33.1216 13.4557 31.4379 13.6799 30.7059 13.485C30.9255 14.0697 32.2614 14.3133 32.902 14.362C31.6941 16.233 29.8366 16.6034 29.0588 16.5546C29.6078 17.724 31.1176 17.724 31.8039 17.5778C31.3647 18.3964 28.9673 19.5756 27.8235 20.0628C28.3725 20.9983 29.9739 21.0373 30.7059 20.9399C30.0471 22.694 28.3268 22.9376 27.549 22.8401C27.7686 23.7756 29.0131 24.2044 29.6078 24.3019C29.0588 25.4713 27.6405 26.5432 27 26.933C28.098 27.9855 29.9281 27.5664 30.7059 27.2254L29.6078 28.6871C32.2157 29.8565 33.8627 27.3715 34 27.3715C34.8784 29.2426 37.2026 29.0282 38.2549 28.6871L37.2941 27.2254C39.0784 28.6871 40.9259 26.8044 41 26.7868C40.3412 27.0207 38.9869 25.2276 38.3922 24.3019C39.051 24.6527 40.0392 23.4735 40.451 22.8401C39.2431 23.3079 37.8431 21.7682 37.2941 20.9399C37.8431 21.4076 39.4444 20.5501 40.1765 20.0628C39.298 20.2967 37.1569 18.5036 36.1961 17.5778C37.2941 18.0456 38.3922 17.188 38.8039 16.7008C37.5961 16.9347 35.7386 15.2391 34.9608 14.362C35.6196 14.7128 36.6993 13.9235 37.1569 13.485Z" fill="#B9DDDD"/>
<path d="M75.5234 63.7909L70.5466 66L68.1336 64.8954L67.832 62.6863L63.6093 63.1597L62.1012 62.6863C61.7084 58.5767 62.5114 56.4181 63.6093 55.3789C63.7294 55.1824 64.5764 54.8295 66.9271 54.6939C70.7879 45.144 78.4894 43.6298 81.8575 44.0664C92.716 46.4649 94.4252 56.8479 93.9225 61.7395C91.0269 64.138 80.4499 64.1065 75.5234 63.7909Z" fill="#E6F9FF"/>
<path d="M70.5466 66L75.5234 63.7909M70.5466 66L68.1336 64.8954L67.832 62.6863M70.5466 66C69.9434 55.6486 65.6704 54.6062 63.6093 55.3789M75.5234 63.7909C80.4499 64.1065 91.0269 64.138 93.9225 61.7395C94.4252 56.8479 92.716 46.4649 81.8575 44.0664C78.4894 43.6298 70.7879 45.144 66.9271 54.6939M75.5234 63.7909C76.1267 56.8479 71.4515 54.7965 69.0385 54.6387C68.2277 54.6387 67.5283 54.6592 66.9271 54.6939M63.6093 63.1597L62.1012 62.6863C61.7084 58.5767 62.5114 56.4181 63.6093 55.3789M63.6093 63.1597L67.832 62.6863M63.6093 63.1597V60.0038C63.6093 58.1102 66.1731 55.1121 67.2288 59.6882L67.832 62.6863M63.6093 55.3789C63.7294 55.1824 64.5764 54.8295 66.9271 54.6939" stroke="#C7F0FE" stroke-width="0.5"/>
<path d="M73.3719 46.1163C74.2662 46.5344 75.9053 47.015 78.0452 47.185M87.5477 45.7907C87.339 45.8689 87.1313 45.9434 86.9246 46.0143M84.1206 46.7851C83.861 46.0195 83.2171 44.4233 82.7186 44.1628M84.1206 46.7851C83.3145 46.9526 82.5337 47.069 81.7839 47.1432M84.1206 46.7851C85.0262 46.5969 85.9636 46.3442 86.9246 46.0143M78.0452 47.185C78.1491 46.2319 78.5437 44.2605 79.2915 44M78.0452 47.185C79.1658 47.2741 80.4237 47.278 81.7839 47.1432M81.7839 47.1432C81.9397 48.049 82.2201 49.9907 82.0955 50.5116M86.9246 46.0143C87.4958 46.9708 88.607 48.9488 88.4824 49.2093M69.7889 49.6977C70.3135 49.8585 70.9409 50.0255 71.6512 50.186M90.3518 49.0465C88.7811 49.7952 87.0902 50.303 85.3668 50.6269M85.3668 50.6269C85.6265 51.5652 86.1146 53.7023 85.99 54.7442M85.3668 50.6269C82.7422 51.1202 80.0424 51.1871 77.5779 51.029M77.5779 51.029C77.5779 51.3256 76.9548 54.2558 77.2663 55.2326M77.5779 51.029C76.3664 50.9512 75.2117 50.8191 74.1508 50.6565M70.7236 53.9302C70.8747 53.0078 71.1471 51.3581 71.6512 50.186M71.6512 50.186C72.4 50.3552 73.2409 50.5171 74.1508 50.6565M74.1508 50.6565L75.2412 47.4186M67.4523 53.4419C69.8402 54.5314 74.9905 55.9169 81.4724 55.6962M93 53.6047C91.7358 54.0308 90.4873 54.3821 89.2613 54.6675M89.2613 54.6675C89.4171 55.2326 90.8191 59.7907 90.3518 63.3721M89.2613 54.6675C86.5278 55.304 83.9062 55.6134 81.4724 55.6962M81.4724 55.6962C81.9916 57.4952 82.8432 61.7116 82.0955 64.186M67.1667 54.5C67.6865 54.7716 69.7802 55.2713 70.5049 56.2093M73.3719 65C73.3227 64.127 73.2282 63.3139 73.0978 62.5581M71.8672 58.4884L69.3216 58.814L67.4523 59.9535M71.8672 58.4884C72.0527 58.8909 72.2288 59.3247 72.3912 59.7907M71.8672 58.4884C71.4446 57.571 70.9733 56.8156 70.5049 56.2093M72.3912 59.7907L75.2412 58.9767M72.3912 59.7907C72.6772 60.6112 72.9206 61.5317 73.0978 62.5581M70.5049 56.2093H72.7353M73.0978 62.5581L70.5049 63.3721L67.9196 63.0465M64.4925 55.0698L64.8704 57.5882M62 59.4651L63.5578 59.9535" stroke="#C8EEFB" stroke-width="0.5"/>
<path d="M64 59.4833C66.2857 53.8566 67.619 59.0926 68 62.4139L64 63V59.4833Z" fill="#9AE4FF"/>
<path d="M25.8627 56.4177C23.2118 56.8335 20.8497 53.6458 20 52C18.3686 56.3657 15.2418 56.7642 13.8824 56.4177C14.2902 57.4572 16.7712 57.8903 17.9608 57.9769C15.7176 61.3032 12.268 61.9615 10.8235 61.8749C11.8431 63.9538 14.6471 63.9538 15.9216 63.694C15.1059 65.1492 10.6536 67.2454 8.52941 68.1117C9.54902 69.7748 12.5229 69.8441 13.8824 69.6709C12.6588 72.7892 9.46405 73.2224 8.01961 73.0491C8.42745 74.7123 10.7386 75.4745 11.8431 75.6478C10.8235 77.7267 8.18954 79.6324 7 80.3253C9.03922 82.1964 12.4379 81.4514 13.8824 80.8451L11.8431 83.4437C16.6863 85.5227 19.7451 81.1049 20 81.1049C21.6314 84.4312 25.9477 84.0501 27.902 83.4437L26.1176 80.8451C29.4314 83.4437 32.8623 80.0967 33 80.0655C31.7765 80.4813 29.2614 77.2936 28.1569 75.6478C29.3804 76.2714 31.2157 74.1752 31.9804 73.0491C29.7373 73.8807 27.1373 71.1434 26.1176 69.6709C27.1373 70.5024 30.1111 68.9779 31.4706 68.1117C29.8392 68.5275 25.8627 65.3398 24.0784 63.694C26.1176 64.5255 28.1569 63.001 28.9216 62.1348C26.6784 62.5505 23.2288 59.5361 21.7843 57.9769C23.0078 58.6006 25.0131 57.1973 25.8627 56.4177Z" fill="#B9DDDD"/>
<ellipse cx="7.89472" cy="60.1265" rx="0.526316" ry="0.632911" fill="#F4F7FC"/>
<ellipse cx="7.89472" cy="60.1265" rx="0.526316" ry="0.632911" fill="#F4F7FC"/>
<ellipse cx="11.0527" cy="74.0506" rx="0.526316" ry="0.632911" fill="#F4F7FC"/>
<ellipse cx="11.0527" cy="74.0506" rx="0.526316" ry="0.632911" fill="#F4F7FC"/>
<ellipse cx="26.8421" cy="67.7215" rx="0.526316" ry="0.632911" fill="#F4F7FC"/>
<ellipse cx="26.8421" cy="67.7215" rx="0.526316" ry="0.632911" fill="#F4F7FC"/>
<ellipse cx="20.5263" cy="81.6455" rx="0.526316" ry="0.632911" fill="#F4F7FC"/>
<ellipse cx="20.5263" cy="81.6455" rx="0.526316" ry="0.632911" fill="#F4F7FC"/>
<ellipse cx="3.68427" cy="89.2405" rx="0.526316" ry="0.632911" fill="#F4F7FC"/>
<ellipse cx="3.68427" cy="89.2405" rx="0.526316" ry="0.632911" fill="#F4F7FC"/>
<ellipse cx="1.57893" cy="79.1139" rx="0.526316" ry="0.632911" fill="#F4F7FC"/>
<ellipse cx="1.57893" cy="79.1139" rx="0.526316" ry="0.632911" fill="#F4F7FC"/>
<ellipse cx="1.57893" cy="68.9873" rx="0.526316" ry="0.632911" fill="#F4F7FC"/>
<ellipse cx="1.57893" cy="68.9873" rx="0.526316" ry="0.632911" fill="#F4F7FC"/>
<ellipse cx="18.4211" cy="93.0379" rx="0.526316" ry="0.632911" fill="#F4F7FC"/>
<ellipse cx="18.4211" cy="93.0379" rx="0.526316" ry="0.632911" fill="#F4F7FC"/>
<ellipse cx="9.99995" cy="84.1772" rx="0.526316" ry="0.632911" fill="#F4F7FC"/>
<ellipse cx="9.99995" cy="84.1772" rx="0.526316" ry="0.632911" fill="#F4F7FC"/>
<ellipse cx="0.526316" cy="98.1012" rx="0.526316" ry="0.632911" fill="#F4F7FC"/>
<ellipse cx="0.526316" cy="98.1012" rx="0.526316" ry="0.632911" fill="#F4F7FC"/>
<ellipse cx="12.1053" cy="98.1012" rx="0.526316" ry="0.632911" fill="#F4F7FC"/>
<ellipse cx="12.1053" cy="98.1012" rx="0.526316" ry="0.632911" fill="#F4F7FC"/>
<ellipse cx="18.4211" cy="93.0379" rx="0.526316" ry="0.632911" fill="#F4F7FC"/>
<ellipse cx="18.4211" cy="93.0379" rx="0.526316" ry="0.632911" fill="#F4F7FC"/>
<ellipse cx="14.2105" cy="60.1265" rx="0.526316" ry="0.632911" fill="#F4F7FC"/>
<ellipse cx="14.2105" cy="60.1265" rx="0.526316" ry="0.632911" fill="#F4F7FC"/>
<ellipse cx="19.4737" cy="74.0506" rx="0.526316" ry="0.632911" fill="#F4F7FC"/>
<ellipse cx="19.4737" cy="74.0506" rx="0.526316" ry="0.632911" fill="#F4F7FC"/>
<ellipse cx="33.1579" cy="67.7215" rx="0.526316" ry="0.632911" fill="#F4F7FC"/>
<ellipse cx="33.1579" cy="67.7215" rx="0.526316" ry="0.632911" fill="#F4F7FC"/>
<ellipse cx="26.8421" cy="81.6455" rx="0.526316" ry="0.632911" fill="#F4F7FC"/>
<ellipse cx="26.8421" cy="81.6455" rx="0.526316" ry="0.632911" fill="#F4F7FC"/>
<ellipse cx="9.99995" cy="89.2405" rx="0.526316" ry="0.632911" fill="#F4F7FC"/>
<ellipse cx="9.99995" cy="89.2405" rx="0.526316" ry="0.632911" fill="#F4F7FC"/>
<ellipse cx="7.89472" cy="79.1139" rx="0.526316" ry="0.632911" fill="#F4F7FC"/>
<ellipse cx="7.89472" cy="79.1139" rx="0.526316" ry="0.632911" fill="#F4F7FC"/>
<ellipse cx="7.89472" cy="68.9873" rx="0.526316" ry="0.632911" fill="#F4F7FC"/>
<ellipse cx="7.89472" cy="68.9873" rx="0.526316" ry="0.632911" fill="#F4F7FC"/>
<ellipse cx="18.4211" cy="84.1772" rx="0.526316" ry="0.632911" fill="#F4F7FC"/>
<ellipse cx="18.4211" cy="84.1772" rx="0.526316" ry="0.632911" fill="#F4F7FC"/>
<ellipse cx="6.84211" cy="98.1012" rx="0.526316" ry="0.632911" fill="#F4F7FC"/>
<ellipse cx="6.84211" cy="98.1012" rx="0.526316" ry="0.632911" fill="#F4F7FC"/>
<ellipse cx="20.5263" cy="98.1012" rx="0.526316" ry="0.632911" fill="#F4F7FC"/>
<ellipse cx="20.5263" cy="98.1012" rx="0.526316" ry="0.632911" fill="#F4F7FC"/>
<ellipse cx="24.7368" cy="93.0379" rx="0.526316" ry="0.632911" fill="#F4F7FC"/>
<ellipse cx="24.7368" cy="93.0379" rx="0.526316" ry="0.632911" fill="#F4F7FC"/>
<ellipse cx="26.8421" cy="57.5949" rx="0.526316" ry="0.632911" fill="#F4F7FC"/>
<ellipse cx="26.8421" cy="57.5949" rx="0.526316" ry="0.632911" fill="#F4F7FC"/>
<ellipse cx="29.9999" cy="71.519" rx="0.526316" ry="0.632911" fill="#F4F7FC"/>
<ellipse cx="29.9999" cy="71.519" rx="0.526316" ry="0.632911" fill="#F4F7FC"/>
<ellipse cx="43.6843" cy="65.1899" rx="0.526316" ry="0.632911" fill="#F4F7FC"/>
<ellipse cx="43.6843" cy="65.1899" rx="0.526316" ry="0.632911" fill="#F4F7FC"/>
<ellipse cx="37.3684" cy="79.1139" rx="0.526316" ry="0.632911" fill="#F4F7FC"/>
<ellipse cx="37.3684" cy="79.1139" rx="0.526316" ry="0.632911" fill="#F4F7FC"/>
<ellipse cx="22.6315" cy="86.7088" rx="0.526316" ry="0.632911" fill="#F4F7FC"/>
<ellipse cx="22.6315" cy="86.7088" rx="0.526316" ry="0.632911" fill="#F4F7FC"/>
<ellipse cx="20.5263" cy="76.5823" rx="0.526316" ry="0.632911" fill="#F4F7FC"/>
<ellipse cx="20.5263" cy="76.5823" rx="0.526316" ry="0.632911" fill="#F4F7FC"/>
<ellipse cx="20.5263" cy="66.4557" rx="0.526316" ry="0.632911" fill="#F4F7FC"/>
<ellipse cx="20.5263" cy="66.4557" rx="0.526316" ry="0.632911" fill="#F4F7FC"/>
<ellipse cx="28.9473" cy="81.6455" rx="0.526316" ry="0.632911" fill="#F4F7FC"/>
<ellipse cx="28.9473" cy="81.6455" rx="0.526316" ry="0.632911" fill="#F4F7FC"/>
<ellipse cx="19.4737" cy="95.5696" rx="0.526316" ry="0.632911" fill="#F4F7FC"/>
<ellipse cx="19.4737" cy="95.5696" rx="0.526316" ry="0.632911" fill="#F4F7FC"/>
<ellipse cx="31.0527" cy="95.5696" rx="0.526316" ry="0.632911" fill="#F4F7FC"/>
<ellipse cx="31.0527" cy="95.5696" rx="0.526316" ry="0.632911" fill="#F4F7FC"/>
<ellipse cx="35.2631" cy="90.5063" rx="0.526316" ry="0.632911" fill="#F4F7FC"/>
<ellipse cx="35.2631" cy="90.5063" rx="0.526316" ry="0.632911" fill="#F4F7FC"/>
<ellipse cx="43.6843" cy="61.3924" rx="0.526316" ry="0.632911" fill="#F4F7FC"/>
<ellipse cx="43.6843" cy="61.3924" rx="0.526316" ry="0.632911" fill="#F4F7FC"/>
<ellipse cx="46.8421" cy="75.3164" rx="0.526316" ry="0.632911" fill="#F4F7FC"/>
<ellipse cx="46.8421" cy="75.3164" rx="0.526316" ry="0.632911" fill="#F4F7FC"/>
<ellipse cx="62.6315" cy="68.9873" rx="0.526316" ry="0.632911" fill="#F4F7FC"/>
<ellipse cx="62.6315" cy="68.9873" rx="0.526316" ry="0.632911" fill="#F4F7FC"/>
<ellipse cx="56.3158" cy="82.9114" rx="0.526316" ry="0.632911" fill="#F4F7FC"/>
<ellipse cx="56.3158" cy="82.9114" rx="0.526316" ry="0.632911" fill="#F4F7FC"/>
<ellipse cx="39.4737" cy="90.5063" rx="0.526316" ry="0.632911" fill="#F4F7FC"/>
<ellipse cx="39.4737" cy="90.5063" rx="0.526316" ry="0.632911" fill="#F4F7FC"/>
<ellipse cx="37.3684" cy="80.3797" rx="0.526316" ry="0.632911" fill="#F4F7FC"/>
<ellipse cx="37.3684" cy="80.3797" rx="0.526316" ry="0.632911" fill="#F4F7FC"/>
<ellipse cx="37.3684" cy="70.2532" rx="0.526316" ry="0.632911" fill="#F4F7FC"/>
<ellipse cx="37.3684" cy="70.2532" rx="0.526316" ry="0.632911" fill="#F4F7FC"/>
<ellipse cx="45.7895" cy="85.443" rx="0.526316" ry="0.632911" fill="#F4F7FC"/>
<ellipse cx="45.7895" cy="85.443" rx="0.526316" ry="0.632911" fill="#F4F7FC"/>
<ellipse cx="36.3159" cy="99.3671" rx="0.526316" ry="0.632911" fill="#F4F7FC"/>
<ellipse cx="36.3159" cy="99.3671" rx="0.526316" ry="0.632911" fill="#F4F7FC"/>
<ellipse cx="47.8947" cy="99.3671" rx="0.526316" ry="0.632911" fill="#F4F7FC"/>
<ellipse cx="47.8947" cy="99.3671" rx="0.526316" ry="0.632911" fill="#F4F7FC"/>
<ellipse cx="54.2105" cy="94.3038" rx="0.526316" ry="0.632911" fill="#F4F7FC"/>
<ellipse cx="54.2105" cy="94.3038" rx="0.526316" ry="0.632911" fill="#F4F7FC"/>
<ellipse cx="62.6315" cy="57.5949" rx="0.526316" ry="0.632911" fill="#F4F7FC"/>
<ellipse cx="62.6315" cy="57.5949" rx="0.526316" ry="0.632911" fill="#F4F7FC"/>
<ellipse cx="65.7895" cy="71.519" rx="0.526316" ry="0.632911" fill="#F4F7FC"/>
<ellipse cx="65.7895" cy="71.519" rx="0.526316" ry="0.632911" fill="#F4F7FC"/>
<ellipse cx="79.4737" cy="65.1899" rx="0.526316" ry="0.632911" fill="#F4F7FC"/>
<ellipse cx="79.4737" cy="65.1899" rx="0.526316" ry="0.632911" fill="#F4F7FC"/>
<ellipse cx="73.1579" cy="79.1139" rx="0.526316" ry="0.632911" fill="#F4F7FC"/>
<ellipse cx="73.1579" cy="79.1139" rx="0.526316" ry="0.632911" fill="#F4F7FC"/>
<ellipse cx="58.4211" cy="86.7088" rx="0.526316" ry="0.632911" fill="#F4F7FC"/>
<ellipse cx="58.4211" cy="86.7088" rx="0.526316" ry="0.632911" fill="#F4F7FC"/>
<ellipse cx="56.3158" cy="76.5823" rx="0.526316" ry="0.632911" fill="#F4F7FC"/>
<ellipse cx="56.3158" cy="76.5823" rx="0.526316" ry="0.632911" fill="#F4F7FC"/>
<ellipse cx="56.3158" cy="66.4557" rx="0.526316" ry="0.632911" fill="#F4F7FC"/>
<ellipse cx="56.3158" cy="66.4557" rx="0.526316" ry="0.632911" fill="#F4F7FC"/>
<ellipse cx="64.7368" cy="81.6455" rx="0.526316" ry="0.632911" fill="#F4F7FC"/>
<ellipse cx="64.7368" cy="81.6455" rx="0.526316" ry="0.632911" fill="#F4F7FC"/>
<ellipse cx="55.2631" cy="95.5696" rx="0.526316" ry="0.632911" fill="#F4F7FC"/>
<ellipse cx="55.2631" cy="95.5696" rx="0.526316" ry="0.632911" fill="#F4F7FC"/>
<ellipse cx="66.8421" cy="95.5696" rx="0.526316" ry="0.632911" fill="#F4F7FC"/>
<ellipse cx="66.8421" cy="95.5696" rx="0.526316" ry="0.632911" fill="#F4F7FC"/>
<ellipse cx="71.0526" cy="90.5063" rx="0.526316" ry="0.632911" fill="#F4F7FC"/>
<ellipse cx="71.0526" cy="90.5063" rx="0.526316" ry="0.632911" fill="#F4F7FC"/>
<ellipse cx="80.5263" cy="56.3291" rx="0.526316" ry="0.632911" fill="#F4F7FC"/>
<ellipse cx="80.5263" cy="56.3291" rx="0.526316" ry="0.632911" fill="#F4F7FC"/>
<ellipse cx="85.7895" cy="70.2532" rx="0.526316" ry="0.632911" fill="#F4F7FC"/>
<ellipse cx="85.7895" cy="70.2532" rx="0.526316" ry="0.632911" fill="#F4F7FC"/>
<ellipse cx="99.4737" cy="63.924" rx="0.526316" ry="0.632911" fill="#F4F7FC"/>
<ellipse cx="99.4737" cy="63.924" rx="0.526316" ry="0.632911" fill="#F4F7FC"/>
<ellipse cx="93.1579" cy="77.8481" rx="0.526316" ry="0.632911" fill="#F4F7FC"/>
<ellipse cx="93.1579" cy="77.8481" rx="0.526316" ry="0.632911" fill="#F4F7FC"/>
<ellipse cx="76.3158" cy="85.443" rx="0.526316" ry="0.632911" fill="#F4F7FC"/>
<ellipse cx="76.3158" cy="85.443" rx="0.526316" ry="0.632911" fill="#F4F7FC"/>
<ellipse cx="74.2105" cy="75.3164" rx="0.526316" ry="0.632911" fill="#F4F7FC"/>
<ellipse cx="74.2105" cy="75.3164" rx="0.526316" ry="0.632911" fill="#F4F7FC"/>
<ellipse cx="74.2105" cy="65.1899" rx="0.526316" ry="0.632911" fill="#F4F7FC"/>
<ellipse cx="74.2105" cy="65.1899" rx="0.526316" ry="0.632911" fill="#F4F7FC"/>
<ellipse cx="83.6842" cy="80.3797" rx="1.57895" ry="0.632911" fill="#F4F7FC"/>
<ellipse cx="83.6842" cy="80.3797" rx="1.57895" ry="0.632911" fill="#F4F7FC"/>
<ellipse cx="73.1579" cy="94.3038" rx="0.526316" ry="0.632911" fill="#F4F7FC"/>
<ellipse cx="73.1579" cy="94.3038" rx="0.526316" ry="0.632911" fill="#F4F7FC"/>
<ellipse cx="86.8421" cy="94.3038" rx="0.526316" ry="0.632911" fill="#F4F7FC"/>
<ellipse cx="86.8421" cy="94.3038" rx="0.526316" ry="0.632911" fill="#F4F7FC"/>
<ellipse cx="91.0526" cy="89.2405" rx="0.526316" ry="0.632911" fill="#F4F7FC"/>
<ellipse cx="91.0526" cy="89.2405" rx="0.526316" ry="0.632911" fill="#F4F7FC"/>
<ellipse cx="44.7368" cy="53.7974" rx="0.526316" ry="0.632911" fill="#F4F7FC"/>
<ellipse cx="44.7368" cy="53.7974" rx="0.526316" ry="0.632911" fill="#F4F7FC"/>
<ellipse cx="47.8947" cy="67.7215" rx="0.526316" ry="0.632911" fill="#F4F7FC"/>
<ellipse cx="47.8947" cy="67.7215" rx="0.526316" ry="0.632911" fill="#F4F7FC"/>
<ellipse cx="63.6842" cy="61.3924" rx="0.526316" ry="0.632911" fill="#F4F7FC"/>
<ellipse cx="63.6842" cy="61.3924" rx="0.526316" ry="0.632911" fill="#F4F7FC"/>
<ellipse cx="57.3684" cy="75.3164" rx="0.526316" ry="0.632911" fill="#F4F7FC"/>
<ellipse cx="57.3684" cy="75.3164" rx="0.526316" ry="0.632911" fill="#F4F7FC"/>
<ellipse cx="40.5263" cy="82.9114" rx="0.526316" ry="0.632911" fill="#F4F7FC"/>
<ellipse cx="40.5263" cy="82.9114" rx="0.526316" ry="0.632911" fill="#F4F7FC"/>
<ellipse cx="38.4211" cy="72.7848" rx="0.526316" ry="0.632911" fill="#F4F7FC"/>
<ellipse cx="38.4211" cy="72.7848" rx="0.526316" ry="0.632911" fill="#F4F7FC"/>
<ellipse cx="38.4211" cy="62.6582" rx="0.526316" ry="0.632911" fill="#F4F7FC"/>
<ellipse cx="38.4211" cy="62.6582" rx="0.526316" ry="0.632911" fill="#F4F7FC"/>
<ellipse cx="46.8421" cy="77.8481" rx="0.526316" ry="0.632911" fill="#F4F7FC"/>
<ellipse cx="46.8421" cy="77.8481" rx="0.526316" ry="0.632911" fill="#F4F7FC"/>
<ellipse cx="37.3684" cy="91.7721" rx="0.526316" ry="0.632911" fill="#F4F7FC"/>
<ellipse cx="37.3684" cy="91.7721" rx="0.526316" ry="0.632911" fill="#F4F7FC"/>
<ellipse cx="50" cy="91.7721" rx="1.57895" ry="0.632911" fill="#F4F7FC"/>
<ellipse cx="50" cy="91.7721" rx="1.57895" ry="0.632911" fill="#F4F7FC"/>
<ellipse cx="55.2631" cy="86.7088" rx="0.526316" ry="0.632911" fill="#F4F7FC"/>
<ellipse cx="55.2631" cy="86.7088" rx="0.526316" ry="0.632911" fill="#F4F7FC"/>
<ellipse cx="7.89472" cy="4.43037" rx="0.526316" ry="0.632911" fill="#F4F7FC"/>
<ellipse cx="7.89472" cy="4.43037" rx="0.526316" ry="0.632911" fill="#F4F7FC"/>
<ellipse cx="11.0527" cy="18.3544" rx="0.526316" ry="0.632911" fill="#F4F7FC"/>
<ellipse cx="11.0527" cy="18.3544" rx="0.526316" ry="0.632911" fill="#F4F7FC"/>
<ellipse cx="26.8421" cy="12.0253" rx="0.526316" ry="0.632911" fill="#F4F7FC"/>
<ellipse cx="26.8421" cy="12.0253" rx="0.526316" ry="0.632911" fill="#F4F7FC"/>
<ellipse cx="20.5263" cy="25.9494" rx="0.526316" ry="0.632911" fill="#F4F7FC"/>
<ellipse cx="20.5263" cy="25.9494" rx="0.526316" ry="0.632911" fill="#F4F7FC"/>
<ellipse cx="3.68427" cy="33.5443" rx="0.526316" ry="0.632911" fill="#F4F7FC"/>
<ellipse cx="3.68427" cy="33.5443" rx="0.526316" ry="0.632911" fill="#F4F7FC"/>
<ellipse cx="1.57893" cy="23.4177" rx="0.526316" ry="0.632911" fill="#F4F7FC"/>
<ellipse cx="1.57893" cy="23.4177" rx="0.526316" ry="0.632911" fill="#F4F7FC"/>
<ellipse cx="1.57893" cy="13.2911" rx="0.526316" ry="0.632911" fill="#F4F7FC"/>
<ellipse cx="1.57893" cy="13.2911" rx="0.526316" ry="0.632911" fill="#F4F7FC"/>
<ellipse cx="18.4211" cy="37.3417" rx="0.526316" ry="0.632911" fill="#F4F7FC"/>
<ellipse cx="18.4211" cy="37.3417" rx="0.526316" ry="0.632911" fill="#F4F7FC"/>
<ellipse cx="9.99995" cy="28.481" rx="0.526316" ry="0.632911" fill="#F4F7FC"/>
<ellipse cx="9.99995" cy="28.481" rx="0.526316" ry="0.632911" fill="#F4F7FC"/>
<ellipse cx="0.526316" cy="42.4051" rx="0.526316" ry="0.632911" fill="#F4F7FC"/>
<ellipse cx="0.526316" cy="42.4051" rx="0.526316" ry="0.632911" fill="#F4F7FC"/>
<ellipse cx="12.1053" cy="42.4051" rx="0.526316" ry="0.632911" fill="#F4F7FC"/>
<ellipse cx="12.1053" cy="42.4051" rx="0.526316" ry="0.632911" fill="#F4F7FC"/>
<ellipse cx="18.4211" cy="37.3417" rx="0.526316" ry="0.632911" fill="#F4F7FC"/>
<ellipse cx="18.4211" cy="37.3417" rx="0.526316" ry="0.632911" fill="#F4F7FC"/>
<ellipse cx="14.2105" cy="4.43037" rx="0.526316" ry="0.632911" fill="#F4F7FC"/>
<ellipse cx="14.2105" cy="4.43037" rx="0.526316" ry="0.632911" fill="#F4F7FC"/>
<ellipse cx="19.4737" cy="18.3544" rx="0.526316" ry="0.632911" fill="#F4F7FC"/>
<ellipse cx="19.4737" cy="18.3544" rx="0.526316" ry="0.632911" fill="#F4F7FC"/>
<ellipse cx="33.1579" cy="12.0253" rx="0.526316" ry="0.632911" fill="#F4F7FC"/>
<ellipse cx="33.1579" cy="12.0253" rx="0.526316" ry="0.632911" fill="#F4F7FC"/>
<ellipse cx="26.8421" cy="25.9494" rx="0.526316" ry="0.632911" fill="#F4F7FC"/>
<ellipse cx="26.8421" cy="25.9494" rx="0.526316" ry="0.632911" fill="#F4F7FC"/>
<ellipse cx="9.99995" cy="33.5443" rx="0.526316" ry="0.632911" fill="#F4F7FC"/>
<ellipse cx="9.99995" cy="33.5443" rx="0.526316" ry="0.632911" fill="#F4F7FC"/>
<ellipse cx="7.89472" cy="23.4177" rx="0.526316" ry="0.632911" fill="#F4F7FC"/>
<ellipse cx="7.89472" cy="23.4177" rx="0.526316" ry="0.632911" fill="#F4F7FC"/>
<ellipse cx="7.89472" cy="13.2911" rx="0.526316" ry="0.632911" fill="#F4F7FC"/>
<ellipse cx="7.89472" cy="13.2911" rx="0.526316" ry="0.632911" fill="#F4F7FC"/>
<ellipse cx="18.4211" cy="28.481" rx="0.526316" ry="0.632911" fill="#F4F7FC"/>
<ellipse cx="18.4211" cy="28.481" rx="0.526316" ry="0.632911" fill="#F4F7FC"/>
<ellipse cx="6.84211" cy="42.4051" rx="0.526316" ry="0.632911" fill="#F4F7FC"/>
<ellipse cx="6.84211" cy="42.4051" rx="0.526316" ry="0.632911" fill="#F4F7FC"/>
<ellipse cx="20.5263" cy="42.4051" rx="0.526316" ry="0.632911" fill="#F4F7FC"/>
<ellipse cx="20.5263" cy="42.4051" rx="0.526316" ry="0.632911" fill="#F4F7FC"/>
<ellipse cx="24.7368" cy="37.3417" rx="0.526316" ry="0.632911" fill="#F4F7FC"/>
<ellipse cx="24.7368" cy="37.3417" rx="0.526316" ry="0.632911" fill="#F4F7FC"/>
<ellipse cx="26.8421" cy="1.89872" rx="0.526316" ry="0.632911" fill="#F4F7FC"/>
<ellipse cx="26.8421" cy="1.89872" rx="0.526316" ry="0.632911" fill="#F4F7FC"/>
<ellipse cx="29.9999" cy="15.8228" rx="0.526316" ry="0.632911" fill="#F4F7FC"/>
<ellipse cx="29.9999" cy="15.8228" rx="0.526316" ry="0.632911" fill="#F4F7FC"/>
<ellipse cx="43.6843" cy="9.49369" rx="0.526316" ry="0.632911" fill="#F4F7FC"/>
<ellipse cx="43.6843" cy="9.49369" rx="0.526316" ry="0.632911" fill="#F4F7FC"/>
<ellipse cx="37.3684" cy="23.4177" rx="0.526316" ry="0.632911" fill="#F4F7FC"/>
<ellipse cx="37.3684" cy="23.4177" rx="0.526316" ry="0.632911" fill="#F4F7FC"/>
<ellipse cx="22.6315" cy="31.0126" rx="0.526316" ry="0.632911" fill="#F4F7FC"/>
<ellipse cx="22.6315" cy="31.0126" rx="0.526316" ry="0.632911" fill="#F4F7FC"/>
<ellipse cx="20.5263" cy="20.8861" rx="0.526316" ry="0.632911" fill="#F4F7FC"/>
<ellipse cx="20.5263" cy="20.8861" rx="0.526316" ry="0.632911" fill="#F4F7FC"/>
<ellipse cx="20.5263" cy="10.7595" rx="0.526316" ry="0.632911" fill="#F4F7FC"/>
<ellipse cx="20.5263" cy="10.7595" rx="0.526316" ry="0.632911" fill="#F4F7FC"/>
<ellipse cx="28.9473" cy="25.9494" rx="0.526316" ry="0.632911" fill="#F4F7FC"/>
<ellipse cx="28.9473" cy="25.9494" rx="0.526316" ry="0.632911" fill="#F4F7FC"/>
<ellipse cx="19.4737" cy="39.8734" rx="0.526316" ry="0.632911" fill="#F4F7FC"/>
<ellipse cx="19.4737" cy="39.8734" rx="0.526316" ry="0.632911" fill="#F4F7FC"/>
<ellipse cx="31.0527" cy="39.8734" rx="0.526316" ry="0.632911" fill="#F4F7FC"/>
<ellipse cx="31.0527" cy="39.8734" rx="0.526316" ry="0.632911" fill="#F4F7FC"/>
<ellipse cx="35.2631" cy="34.8101" rx="0.526316" ry="0.632911" fill="#F4F7FC"/>
<ellipse cx="35.2631" cy="34.8101" rx="0.526316" ry="0.632911" fill="#F4F7FC"/>
<ellipse cx="43.6843" cy="5.69614" rx="0.526316" ry="0.632911" fill="#F4F7FC"/>
<ellipse cx="43.6843" cy="5.69614" rx="0.526316" ry="0.632911" fill="#F4F7FC"/>
<ellipse cx="46.8421" cy="19.6202" rx="0.526316" ry="0.632911" fill="#F4F7FC"/>
<ellipse cx="46.8421" cy="19.6202" rx="0.526316" ry="0.632911" fill="#F4F7FC"/>
<ellipse cx="62.6315" cy="13.2911" rx="0.526316" ry="0.632911" fill="#F4F7FC"/>
<ellipse cx="62.6315" cy="13.2911" rx="0.526316" ry="0.632911" fill="#F4F7FC"/>
<ellipse cx="56.3158" cy="27.2152" rx="0.526316" ry="0.632911" fill="#F4F7FC"/>
<ellipse cx="56.3158" cy="27.2152" rx="0.526316" ry="0.632911" fill="#F4F7FC"/>
<ellipse cx="39.4737" cy="34.8101" rx="0.526316" ry="0.632911" fill="#F4F7FC"/>
<ellipse cx="39.4737" cy="34.8101" rx="0.526316" ry="0.632911" fill="#F4F7FC"/>
<ellipse cx="37.3684" cy="24.6835" rx="0.526316" ry="0.632911" fill="#F4F7FC"/>
<ellipse cx="37.3684" cy="24.6835" rx="0.526316" ry="0.632911" fill="#F4F7FC"/>
<ellipse cx="37.3684" cy="14.5569" rx="0.526316" ry="0.632911" fill="#F4F7FC"/>
<ellipse cx="37.3684" cy="14.5569" rx="0.526316" ry="0.632911" fill="#F4F7FC"/>
<ellipse cx="45.7895" cy="29.7468" rx="0.526316" ry="0.632911" fill="#F4F7FC"/>
<ellipse cx="45.7895" cy="29.7468" rx="0.526316" ry="0.632911" fill="#F4F7FC"/>
<ellipse cx="36.3159" cy="43.6709" rx="0.526316" ry="0.632911" fill="#F4F7FC"/>
<ellipse cx="36.3159" cy="43.6709" rx="0.526316" ry="0.632911" fill="#F4F7FC"/>
<ellipse cx="47.8947" cy="43.6709" rx="0.526316" ry="0.632911" fill="#F4F7FC"/>
<ellipse cx="47.8947" cy="43.6709" rx="0.526316" ry="0.632911" fill="#F4F7FC"/>
<ellipse cx="54.2105" cy="38.6076" rx="0.526316" ry="0.632911" fill="#F4F7FC"/>
<ellipse cx="54.2105" cy="38.6076" rx="0.526316" ry="0.632911" fill="#F4F7FC"/>
<ellipse cx="62.6315" cy="1.89872" rx="0.526316" ry="0.632911" fill="#F4F7FC"/>
<ellipse cx="62.6315" cy="1.89872" rx="0.526316" ry="0.632911" fill="#F4F7FC"/>
<ellipse cx="65.7895" cy="15.8228" rx="0.526316" ry="0.632911" fill="#F4F7FC"/>
<ellipse cx="65.7895" cy="15.8228" rx="0.526316" ry="0.632911" fill="#F4F7FC"/>
<ellipse cx="79.4737" cy="9.49369" rx="0.526316" ry="0.632911" fill="#F4F7FC"/>
<ellipse cx="79.4737" cy="9.49369" rx="0.526316" ry="0.632911" fill="#F4F7FC"/>
<ellipse cx="73.1579" cy="23.4177" rx="0.526316" ry="0.632911" fill="#F4F7FC"/>
<ellipse cx="73.1579" cy="23.4177" rx="0.526316" ry="0.632911" fill="#F4F7FC"/>
<ellipse cx="58.4211" cy="31.0126" rx="0.526316" ry="0.632911" fill="#F4F7FC"/>
<ellipse cx="58.4211" cy="31.0126" rx="0.526316" ry="0.632911" fill="#F4F7FC"/>
<ellipse cx="56.3158" cy="20.8861" rx="0.526316" ry="0.632911" fill="#F4F7FC"/>
<ellipse cx="56.3158" cy="20.8861" rx="0.526316" ry="0.632911" fill="#F4F7FC"/>
<ellipse cx="56.3158" cy="10.7595" rx="0.526316" ry="0.632911" fill="#F4F7FC"/>
<ellipse cx="56.3158" cy="10.7595" rx="0.526316" ry="0.632911" fill="#F4F7FC"/>
<ellipse cx="64.7368" cy="25.9494" rx="0.526316" ry="0.632911" fill="#F4F7FC"/>
<ellipse cx="64.7368" cy="25.9494" rx="0.526316" ry="0.632911" fill="#F4F7FC"/>
<ellipse cx="55.2631" cy="39.8734" rx="0.526316" ry="0.632911" fill="#F4F7FC"/>
<ellipse cx="55.2631" cy="39.8734" rx="0.526316" ry="0.632911" fill="#F4F7FC"/>
<ellipse cx="66.8421" cy="39.8734" rx="0.526316" ry="0.632911" fill="#F4F7FC"/>
<ellipse cx="66.8421" cy="39.8734" rx="0.526316" ry="0.632911" fill="#F4F7FC"/>
<ellipse cx="71.0526" cy="34.8101" rx="0.526316" ry="0.632911" fill="#F4F7FC"/>
<ellipse cx="71.0526" cy="34.8101" rx="0.526316" ry="0.632911" fill="#F4F7FC"/>
<ellipse cx="80.5263" cy="0.632911" rx="0.526316" ry="0.632911" fill="#F4F7FC"/>
<ellipse cx="80.5263" cy="0.632911" rx="0.526316" ry="0.632911" fill="#F4F7FC"/>
<ellipse cx="85.7895" cy="14.5569" rx="0.526316" ry="0.632911" fill="#F4F7FC"/>
<ellipse cx="85.7895" cy="14.5569" rx="0.526316" ry="0.632911" fill="#F4F7FC"/>
<ellipse cx="99.4737" cy="8.22782" rx="0.526316" ry="0.632911" fill="#F4F7FC"/>
<ellipse cx="99.4737" cy="8.22782" rx="0.526316" ry="0.632911" fill="#F4F7FC"/>
<ellipse cx="93.1579" cy="22.1519" rx="0.526316" ry="0.632911" fill="#F4F7FC"/>
<ellipse cx="93.1579" cy="22.1519" rx="0.526316" ry="0.632911" fill="#F4F7FC"/>
<ellipse cx="76.3158" cy="29.7468" rx="0.526316" ry="0.632911" fill="#F4F7FC"/>
<ellipse cx="76.3158" cy="29.7468" rx="0.526316" ry="0.632911" fill="#F4F7FC"/>
<ellipse cx="74.2105" cy="19.6202" rx="0.526316" ry="0.632911" fill="#F4F7FC"/>
<ellipse cx="74.2105" cy="19.6202" rx="0.526316" ry="0.632911" fill="#F4F7FC"/>
<ellipse cx="74.2105" cy="9.49369" rx="0.526316" ry="0.632911" fill="#F4F7FC"/>
<ellipse cx="74.2105" cy="9.49369" rx="0.526316" ry="0.632911" fill="#F4F7FC"/>
<ellipse cx="73.1579" cy="38.6076" rx="0.526316" ry="0.632911" fill="#F4F7FC"/>
<ellipse cx="73.1579" cy="38.6076" rx="0.526316" ry="0.632911" fill="#F4F7FC"/>
<ellipse cx="86.8421" cy="38.6076" rx="0.526316" ry="0.632911" fill="#F4F7FC"/>
<ellipse cx="86.8421" cy="38.6076" rx="0.526316" ry="0.632911" fill="#F4F7FC"/>
<ellipse cx="91.0526" cy="33.5443" rx="0.526316" ry="0.632911" fill="#F4F7FC"/>
<ellipse cx="91.0526" cy="33.5443" rx="0.526316" ry="0.632911" fill="#F4F7FC"/>
<ellipse cx="47.8947" cy="12.0253" rx="0.526316" ry="0.632911" fill="#F4F7FC"/>
<ellipse cx="47.8947" cy="12.0253" rx="0.526316" ry="0.632911" fill="#F4F7FC"/>
<ellipse cx="63.6842" cy="5.69614" rx="0.526316" ry="0.632911" fill="#F4F7FC"/>
<ellipse cx="63.6842" cy="5.69614" rx="0.526316" ry="0.632911" fill="#F4F7FC"/>
<ellipse cx="57.3684" cy="19.6202" rx="0.526316" ry="0.632911" fill="#F4F7FC"/>
<ellipse cx="57.3684" cy="19.6202" rx="0.526316" ry="0.632911" fill="#F4F7FC"/>
<ellipse cx="40.5263" cy="27.2152" rx="0.526316" ry="0.632911" fill="#F4F7FC"/>
<ellipse cx="40.5263" cy="27.2152" rx="0.526316" ry="0.632911" fill="#F4F7FC"/>
<ellipse cx="38.4211" cy="17.0886" rx="0.526316" ry="0.632911" fill="#F4F7FC"/>
<ellipse cx="38.4211" cy="17.0886" rx="0.526316" ry="0.632911" fill="#F4F7FC"/>
<ellipse cx="38.4211" cy="6.96201" rx="0.526316" ry="0.632911" fill="#F4F7FC"/>
<ellipse cx="38.4211" cy="6.96201" rx="0.526316" ry="0.632911" fill="#F4F7FC"/>
<ellipse cx="46.8421" cy="22.1519" rx="0.526316" ry="0.632911" fill="#F4F7FC"/>
<ellipse cx="46.8421" cy="22.1519" rx="0.526316" ry="0.632911" fill="#F4F7FC"/>
<ellipse cx="37.3684" cy="36.0759" rx="0.526316" ry="0.632911" fill="#F4F7FC"/>
<ellipse cx="37.3684" cy="36.0759" rx="0.526316" ry="0.632911" fill="#F4F7FC"/>
<ellipse cx="55.2631" cy="31.0126" rx="0.526316" ry="0.632911" fill="#F4F7FC"/>
<ellipse cx="55.2631" cy="31.0126" rx="0.526316" ry="0.632911" fill="#F4F7FC"/>
<ellipse cx="7.89472" cy="43.6709" rx="0.526316" ry="0.632911" fill="#F4F7FC"/>
<ellipse cx="7.89472" cy="43.6709" rx="0.526316" ry="0.632911" fill="#F4F7FC"/>
<ellipse cx="11.0527" cy="57.5949" rx="0.526316" ry="0.632911" fill="#F4F7FC"/>
<ellipse cx="11.0527" cy="57.5949" rx="0.526316" ry="0.632911" fill="#F4F7FC"/>
<ellipse cx="26.8421" cy="51.2658" rx="0.526316" ry="0.632911" fill="#F4F7FC"/>
<ellipse cx="26.8421" cy="51.2658" rx="0.526316" ry="0.632911" fill="#F4F7FC"/>
<ellipse cx="20.5263" cy="65.1899" rx="0.526316" ry="0.632911" fill="#F4F7FC"/>
<ellipse cx="20.5263" cy="65.1899" rx="0.526316" ry="0.632911" fill="#F4F7FC"/>
<ellipse cx="3.68427" cy="72.7848" rx="0.526316" ry="0.632911" fill="#F4F7FC"/>
<ellipse cx="3.68427" cy="72.7848" rx="0.526316" ry="0.632911" fill="#F4F7FC"/>
<ellipse cx="1.57893" cy="62.6582" rx="0.526316" ry="0.632911" fill="#F4F7FC"/>
<ellipse cx="1.57893" cy="62.6582" rx="0.526316" ry="0.632911" fill="#F4F7FC"/>
<ellipse cx="1.57893" cy="52.5316" rx="0.526316" ry="0.632911" fill="#F4F7FC"/>
<ellipse cx="1.57893" cy="52.5316" rx="0.526316" ry="0.632911" fill="#F4F7FC"/>
<ellipse cx="18.4211" cy="76.5823" rx="0.526316" ry="0.632911" fill="#F4F7FC"/>
<ellipse cx="18.4211" cy="76.5823" rx="0.526316" ry="0.632911" fill="#F4F7FC"/>
<ellipse cx="9.99995" cy="67.7215" rx="0.526316" ry="0.632911" fill="#F4F7FC"/>
<ellipse cx="9.99995" cy="67.7215" rx="0.526316" ry="0.632911" fill="#F4F7FC"/>
<ellipse cx="0.526316" cy="81.6455" rx="0.526316" ry="0.632911" fill="#F4F7FC"/>
<ellipse cx="0.526316" cy="81.6455" rx="0.526316" ry="0.632911" fill="#F4F7FC"/>
<ellipse cx="12.1053" cy="81.6455" rx="0.526316" ry="0.632911" fill="#F4F7FC"/>
<ellipse cx="12.1053" cy="81.6455" rx="0.526316" ry="0.632911" fill="#F4F7FC"/>
<ellipse cx="18.4211" cy="76.5823" rx="0.526316" ry="0.632911" fill="#F4F7FC"/>
<ellipse cx="18.4211" cy="76.5823" rx="0.526316" ry="0.632911" fill="#F4F7FC"/>
<ellipse cx="14.2105" cy="43.6709" rx="0.526316" ry="0.632911" fill="#F4F7FC"/>
<ellipse cx="14.2105" cy="43.6709" rx="0.526316" ry="0.632911" fill="#F4F7FC"/>
<ellipse cx="19.4737" cy="57.5949" rx="0.526316" ry="0.632911" fill="#F4F7FC"/>
<ellipse cx="19.4737" cy="57.5949" rx="0.526316" ry="0.632911" fill="#F4F7FC"/>
<ellipse cx="33.1579" cy="51.2658" rx="0.526316" ry="0.632911" fill="#F4F7FC"/>
<ellipse cx="33.1579" cy="51.2658" rx="0.526316" ry="0.632911" fill="#F4F7FC"/>
<ellipse cx="26.8421" cy="65.1899" rx="0.526316" ry="0.632911" fill="#F4F7FC"/>
<ellipse cx="26.8421" cy="65.1899" rx="0.526316" ry="0.632911" fill="#F4F7FC"/>
<ellipse cx="9.99995" cy="72.7848" rx="0.526316" ry="0.632911" fill="#F4F7FC"/>
<ellipse cx="9.99995" cy="72.7848" rx="0.526316" ry="0.632911" fill="#F4F7FC"/>
<ellipse cx="7.89472" cy="62.6582" rx="0.526316" ry="0.632911" fill="#F4F7FC"/>
<ellipse cx="7.89472" cy="62.6582" rx="0.526316" ry="0.632911" fill="#F4F7FC"/>
<ellipse cx="7.89472" cy="52.5316" rx="0.526316" ry="0.632911" fill="#F4F7FC"/>
<ellipse cx="7.89472" cy="52.5316" rx="0.526316" ry="0.632911" fill="#F4F7FC"/>
<ellipse cx="18.4211" cy="67.7215" rx="0.526316" ry="0.632911" fill="#F4F7FC"/>
<ellipse cx="18.4211" cy="67.7215" rx="0.526316" ry="0.632911" fill="#F4F7FC"/>
<ellipse cx="6.84211" cy="81.6455" rx="0.526316" ry="0.632911" fill="#F4F7FC"/>
<ellipse cx="6.84211" cy="81.6455" rx="0.526316" ry="0.632911" fill="#F4F7FC"/>
<ellipse cx="20.5263" cy="81.6455" rx="0.526316" ry="0.632911" fill="#F4F7FC"/>
<ellipse cx="20.5263" cy="81.6455" rx="0.526316" ry="0.632911" fill="#F4F7FC"/>
<ellipse cx="24.7368" cy="76.5823" rx="0.526316" ry="0.632911" fill="#F4F7FC"/>
<ellipse cx="24.7368" cy="76.5823" rx="0.526316" ry="0.632911" fill="#F4F7FC"/>
<ellipse cx="26.8421" cy="41.1392" rx="0.526316" ry="0.632911" fill="#F4F7FC"/>
<ellipse cx="26.8421" cy="41.1392" rx="0.526316" ry="0.632911" fill="#F4F7FC"/>
<ellipse cx="29.9999" cy="55.0633" rx="0.526316" ry="0.632911" fill="#F4F7FC"/>
<ellipse cx="29.9999" cy="55.0633" rx="0.526316" ry="0.632911" fill="#F4F7FC"/>
<ellipse cx="43.6843" cy="48.7342" rx="0.526316" ry="0.632911" fill="#F4F7FC"/>
<ellipse cx="43.6843" cy="48.7342" rx="0.526316" ry="0.632911" fill="#F4F7FC"/>
<ellipse cx="37.3684" cy="62.6582" rx="0.526316" ry="0.632911" fill="#F4F7FC"/>
<ellipse cx="37.3684" cy="62.6582" rx="0.526316" ry="0.632911" fill="#F4F7FC"/>
<ellipse cx="22.6315" cy="70.2532" rx="0.526316" ry="0.632911" fill="#F4F7FC"/>
<ellipse cx="22.6315" cy="70.2532" rx="0.526316" ry="0.632911" fill="#F4F7FC"/>
<ellipse cx="20.5263" cy="60.1265" rx="0.526316" ry="0.632911" fill="#F4F7FC"/>
<ellipse cx="20.5263" cy="60.1265" rx="0.526316" ry="0.632911" fill="#F4F7FC"/>
<ellipse cx="20.5263" cy="49.9999" rx="0.526316" ry="0.632911" fill="#F4F7FC"/>
<ellipse cx="20.5263" cy="49.9999" rx="0.526316" ry="0.632911" fill="#F4F7FC"/>
<ellipse cx="28.9473" cy="65.1899" rx="0.526316" ry="0.632911" fill="#F4F7FC"/>
<ellipse cx="28.9473" cy="65.1899" rx="0.526316" ry="0.632911" fill="#F4F7FC"/>
<ellipse cx="19.4737" cy="79.1139" rx="0.526316" ry="0.632911" fill="#F4F7FC"/>
<ellipse cx="19.4737" cy="79.1139" rx="0.526316" ry="0.632911" fill="#F4F7FC"/>
<ellipse cx="31.0527" cy="79.1139" rx="0.526316" ry="0.632911" fill="#F4F7FC"/>
<ellipse cx="31.0527" cy="79.1139" rx="0.526316" ry="0.632911" fill="#F4F7FC"/>
<ellipse cx="35.2631" cy="74.0506" rx="0.526316" ry="0.632911" fill="#F4F7FC"/>
<ellipse cx="35.2631" cy="74.0506" rx="0.526316" ry="0.632911" fill="#F4F7FC"/>
<ellipse cx="43.6843" cy="44.9367" rx="0.526316" ry="0.632911" fill="#F4F7FC"/>
<ellipse cx="43.6843" cy="44.9367" rx="0.526316" ry="0.632911" fill="#F4F7FC"/>
<ellipse cx="46.8421" cy="58.8607" rx="0.526316" ry="0.632911" fill="#F4F7FC"/>
<ellipse cx="46.8421" cy="58.8607" rx="0.526316" ry="0.632911" fill="#F4F7FC"/>
<ellipse cx="62.6315" cy="52.5316" rx="0.526316" ry="0.632911" fill="#F4F7FC"/>
<ellipse cx="62.6315" cy="52.5316" rx="0.526316" ry="0.632911" fill="#F4F7FC"/>
<ellipse cx="56.3158" cy="66.4557" rx="0.526316" ry="0.632911" fill="#F4F7FC"/>
<ellipse cx="56.3158" cy="66.4557" rx="0.526316" ry="0.632911" fill="#F4F7FC"/>
<ellipse cx="39.4737" cy="74.0506" rx="0.526316" ry="0.632911" fill="#F4F7FC"/>
<ellipse cx="39.4737" cy="74.0506" rx="0.526316" ry="0.632911" fill="#F4F7FC"/>
<ellipse cx="37.3684" cy="63.924" rx="0.526316" ry="0.632911" fill="#F4F7FC"/>
<ellipse cx="37.3684" cy="63.924" rx="0.526316" ry="0.632911" fill="#F4F7FC"/>
<ellipse cx="37.3684" cy="53.7974" rx="0.526316" ry="0.632911" fill="#F4F7FC"/>
<ellipse cx="37.3684" cy="53.7974" rx="0.526316" ry="0.632911" fill="#F4F7FC"/>
<ellipse cx="45.7895" cy="68.9873" rx="0.526316" ry="0.632911" fill="#F4F7FC"/>
<ellipse cx="45.7895" cy="68.9873" rx="0.526316" ry="0.632911" fill="#F4F7FC"/>
<ellipse cx="36.3159" cy="82.9114" rx="0.526316" ry="0.632911" fill="#F4F7FC"/>
<ellipse cx="36.3159" cy="82.9114" rx="0.526316" ry="0.632911" fill="#F4F7FC"/>
<ellipse cx="47.8947" cy="82.9114" rx="0.526316" ry="0.632911" fill="#F4F7FC"/>
<ellipse cx="47.8947" cy="82.9114" rx="0.526316" ry="0.632911" fill="#F4F7FC"/>
<ellipse cx="54.2105" cy="77.8481" rx="0.526316" ry="0.632911" fill="#F4F7FC"/>
<ellipse cx="54.2105" cy="77.8481" rx="0.526316" ry="0.632911" fill="#F4F7FC"/>
<ellipse cx="62.6315" cy="41.1392" rx="0.526316" ry="0.632911" fill="#F4F7FC"/>
<ellipse cx="62.6315" cy="41.1392" rx="0.526316" ry="0.632911" fill="#F4F7FC"/>
<ellipse cx="65.7895" cy="55.0633" rx="0.526316" ry="0.632911" fill="#F4F7FC"/>
<ellipse cx="65.7895" cy="55.0633" rx="0.526316" ry="0.632911" fill="#F4F7FC"/>
<ellipse cx="79.4737" cy="48.7342" rx="0.526316" ry="0.632911" fill="#F4F7FC"/>
<ellipse cx="79.4737" cy="48.7342" rx="0.526316" ry="0.632911" fill="#F4F7FC"/>
<ellipse cx="73.1579" cy="62.6582" rx="0.526316" ry="0.632911" fill="#F4F7FC"/>
<ellipse cx="73.1579" cy="62.6582" rx="0.526316" ry="0.632911" fill="#F4F7FC"/>
<ellipse cx="58.4211" cy="70.2532" rx="0.526316" ry="0.632911" fill="#F4F7FC"/>
<ellipse cx="58.4211" cy="70.2532" rx="0.526316" ry="0.632911" fill="#F4F7FC"/>
<ellipse cx="56.3158" cy="60.1265" rx="0.526316" ry="0.632911" fill="#F4F7FC"/>
<ellipse cx="56.3158" cy="60.1265" rx="0.526316" ry="0.632911" fill="#F4F7FC"/>
<ellipse cx="56.3158" cy="49.9999" rx="0.526316" ry="0.632911" fill="#F4F7FC"/>
<ellipse cx="56.3158" cy="49.9999" rx="0.526316" ry="0.632911" fill="#F4F7FC"/>
<ellipse cx="64.7368" cy="65.1899" rx="0.526316" ry="0.632911" fill="#F4F7FC"/>
<ellipse cx="64.7368" cy="65.1899" rx="0.526316" ry="0.632911" fill="#F4F7FC"/>
<ellipse cx="55.2631" cy="79.1139" rx="0.526316" ry="0.632911" fill="#F4F7FC"/>
<ellipse cx="55.2631" cy="79.1139" rx="0.526316" ry="0.632911" fill="#F4F7FC"/>
<ellipse cx="66.8421" cy="79.1139" rx="0.526316" ry="0.632911" fill="#F4F7FC"/>
<ellipse cx="66.8421" cy="79.1139" rx="0.526316" ry="0.632911" fill="#F4F7FC"/>
<ellipse cx="71.0526" cy="74.0506" rx="0.526316" ry="0.632911" fill="#F4F7FC"/>
<ellipse cx="71.0526" cy="74.0506" rx="0.526316" ry="0.632911" fill="#F4F7FC"/>
<ellipse cx="80.5263" cy="39.8734" rx="0.526316" ry="0.632911" fill="#F4F7FC"/>
<ellipse cx="80.5263" cy="39.8734" rx="0.526316" ry="0.632911" fill="#F4F7FC"/>
<ellipse cx="85.7895" cy="53.7974" rx="0.526316" ry="0.632911" fill="#F4F7FC"/>
<ellipse cx="85.7895" cy="53.7974" rx="0.526316" ry="0.632911" fill="#F4F7FC"/>
<ellipse cx="99.4737" cy="47.4683" rx="0.526316" ry="0.632911" fill="#F4F7FC"/>
<ellipse cx="99.4737" cy="47.4683" rx="0.526316" ry="0.632911" fill="#F4F7FC"/>
<ellipse cx="93.1579" cy="61.3924" rx="0.526316" ry="0.632911" fill="#F4F7FC"/>
<ellipse cx="93.1579" cy="61.3924" rx="0.526316" ry="0.632911" fill="#F4F7FC"/>
<ellipse cx="76.3158" cy="68.9873" rx="0.526316" ry="0.632911" fill="#F4F7FC"/>
<ellipse cx="76.3158" cy="68.9873" rx="0.526316" ry="0.632911" fill="#F4F7FC"/>
<ellipse cx="74.2105" cy="58.8607" rx="0.526316" ry="0.632911" fill="#F4F7FC"/>
<ellipse cx="74.2105" cy="58.8607" rx="0.526316" ry="0.632911" fill="#F4F7FC"/>
<ellipse cx="74.2105" cy="48.7342" rx="0.526316" ry="0.632911" fill="#F4F7FC"/>
<ellipse cx="74.2105" cy="48.7342" rx="0.526316" ry="0.632911" fill="#F4F7FC"/>
<ellipse cx="83.6842" cy="63.924" rx="1.57895" ry="0.632911" fill="#F4F7FC"/>
<ellipse cx="83.6842" cy="63.924" rx="1.57895" ry="0.632911" fill="#F4F7FC"/>
<ellipse cx="73.1579" cy="77.8481" rx="0.526316" ry="0.632911" fill="#F4F7FC"/>
<ellipse cx="73.1579" cy="77.8481" rx="0.526316" ry="0.632911" fill="#F4F7FC"/>
<ellipse cx="86.8421" cy="77.8481" rx="0.526316" ry="0.632911" fill="#F4F7FC"/>
<ellipse cx="86.8421" cy="77.8481" rx="0.526316" ry="0.632911" fill="#F4F7FC"/>
<ellipse cx="91.0526" cy="72.7848" rx="0.526316" ry="0.632911" fill="#F4F7FC"/>
<ellipse cx="91.0526" cy="72.7848" rx="0.526316" ry="0.632911" fill="#F4F7FC"/>
<ellipse cx="44.7368" cy="37.3417" rx="0.526316" ry="0.632911" fill="#F4F7FC"/>
<ellipse cx="44.7368" cy="37.3417" rx="0.526316" ry="0.632911" fill="#F4F7FC"/>
<ellipse cx="47.8947" cy="51.2658" rx="0.526316" ry="0.632911" fill="#F4F7FC"/>
<ellipse cx="47.8947" cy="51.2658" rx="0.526316" ry="0.632911" fill="#F4F7FC"/>
<ellipse cx="63.6842" cy="44.9367" rx="0.526316" ry="0.632911" fill="#F4F7FC"/>
<ellipse cx="63.6842" cy="44.9367" rx="0.526316" ry="0.632911" fill="#F4F7FC"/>
<ellipse cx="57.3684" cy="58.8607" rx="0.526316" ry="0.632911" fill="#F4F7FC"/>
<ellipse cx="57.3684" cy="58.8607" rx="0.526316" ry="0.632911" fill="#F4F7FC"/>
<ellipse cx="40.5263" cy="66.4557" rx="0.526316" ry="0.632911" fill="#F4F7FC"/>
<ellipse cx="40.5263" cy="66.4557" rx="0.526316" ry="0.632911" fill="#F4F7FC"/>
<ellipse cx="38.4211" cy="56.3291" rx="0.526316" ry="0.632911" fill="#F4F7FC"/>
<ellipse cx="38.4211" cy="56.3291" rx="0.526316" ry="0.632911" fill="#F4F7FC"/>
<ellipse cx="38.4211" cy="46.2025" rx="0.526316" ry="0.632911" fill="#F4F7FC"/>
<ellipse cx="38.4211" cy="46.2025" rx="0.526316" ry="0.632911" fill="#F4F7FC"/>
<ellipse cx="46.8421" cy="61.3924" rx="0.526316" ry="0.632911" fill="#F4F7FC"/>
<ellipse cx="46.8421" cy="61.3924" rx="0.526316" ry="0.632911" fill="#F4F7FC"/>
<ellipse cx="37.3684" cy="75.3164" rx="0.526316" ry="0.632911" fill="#F4F7FC"/>
<ellipse cx="37.3684" cy="75.3164" rx="0.526316" ry="0.632911" fill="#F4F7FC"/>
<ellipse cx="50" cy="75.3164" rx="1.57895" ry="0.632911" fill="#F4F7FC"/>
<ellipse cx="50" cy="75.3164" rx="1.57895" ry="0.632911" fill="#F4F7FC"/>
<ellipse cx="55.2631" cy="70.2532" rx="0.526316" ry="0.632911" fill="#F4F7FC"/>
<ellipse cx="55.2631" cy="70.2532" rx="0.526316" ry="0.632911" fill="#F4F7FC"/>
</svg>
