<svg width="126" height="123" viewBox="0 0 126 123" fill="none" xmlns="http://www.w3.org/2000/svg">
<g filter="url(#filter0_i_1_62)">
<path d="M40.1045 115.378C30.1045 115.778 34.6045 110.211 38.1045 107.378C34.6045 107.878 32.6045 49.8778 76.1045 50.3778C110.904 50.7778 119.604 86.8778 119.604 104.878C120.938 106.211 123.904 109.278 125.104 110.878C126.304 112.478 125.604 114.211 125.104 114.878H121.604C120.804 114.878 118.938 113.878 118.104 113.378H114.104C112.104 112.978 110.938 113.878 110.604 114.378V116.378C110.204 117.178 107.771 118.044 106.604 118.378H102.104C99.7045 118.378 96.7711 116.711 95.6045 115.878H90.6045C88.4378 117.044 83.7045 118.678 82.1045 115.878C80.5045 113.078 77.7711 112.711 76.6045 112.878C72.6045 114.378 73.1045 114.378 71.6045 118.378C70.1045 122.378 66.1045 123.378 64.1045 119.878C62.5045 117.078 60.7711 116.378 60.1045 116.378C59.2711 116.211 56.9045 116.078 54.1045 116.878C51.3045 117.678 48.2711 117.211 47.1045 116.878C44.3045 114.078 41.2711 114.711 40.1045 115.378Z" fill="#F9B6C2"/>
</g>
<path d="M42.1043 113.106C40.9043 111.106 38.9376 112.273 38.1043 113.106C36.1043 113.506 37.271 111.939 38.1043 111.106C39.6043 110.606 42.8043 110.006 43.6043 111.606C44.4043 113.206 47.271 112.606 48.6043 112.106C48.771 111.273 50.3043 109.806 55.1043 110.606C61.1043 111.606 58.1043 115.106 55.1043 113.106C52.7043 111.506 50.4376 113.106 49.6043 114.106C47.6043 114.606 43.3043 115.106 42.1043 113.106Z" fill="#FFD1D9" fill-opacity="0.35"/>
<path d="M78 100.875C74.8 100.875 73.6667 96.5414 73.5 94.3747H78H82.5C82.3333 96.5414 81.2 100.875 78 100.875Z" fill="#FB9EAD"/>
<path d="M63 82.3747L70 87.3747L63 92.3747M93 82.3747L86 87.3747L93 92.3747M70.5 94.3747H73.5M85 94.3747H82.5M73.5 94.3747C73.6667 96.5414 74.8 100.875 78 100.875C81.2 100.875 82.3333 96.5414 82.5 94.3747M73.5 94.3747H78M82.5 94.3747H78M78 94.3747V97.8747" stroke="#FF657F"/>
<path d="M42.6045 97.8778C42.1045 101.044 42.2045 105.478 46.6045 97.8778M96.1045 103.378C96.9378 101.878 98.9045 99.5778 100.104 102.378C101.304 105.178 102.938 103.211 103.604 101.878C103.438 99.7111 103.604 96.3778 105.604 100.378C107.604 104.378 108.771 99.7111 109.104 96.8778M95.1045 78.3778C95.1045 77.2111 95.6045 75.5778 97.6045 78.3778C98.1045 78.8778 99.2045 79.1778 99.6045 76.3778C100.004 73.5778 101.438 75.5444 102.104 76.8778" stroke="#EE8C9C"/>
<path d="M63.1045 64.8778C54.3045 66.8778 50.4378 81.7111 49.6045 88.8778C48.9378 90.2111 47.3045 91.8778 46.1045 87.8778C44.6045 82.8778 51.6045 63.8778 60.6045 62.8778C67.8045 62.0778 65.2711 63.8778 63.1045 64.8778Z" fill="#FFD1D9" fill-opacity="0.35"/>
<path d="M53.5 100.375C53.5 101.755 52.3807 101.875 51 101.875C49.6193 101.875 48 101.755 48 100.375C48 98.994 49.6193 98.3747 51 98.3747C52.3807 98.3747 53.5 98.994 53.5 100.375Z" fill="#FFD1D9" fill-opacity="0.35"/>
<path d="M3.49995 2.37472L0.673641 4.66846L4.49994 15.3747L21.3309 14.1831L17 7.37472L14.5 9.87472L13 5.37472L11.5 7.87471L9.90125 8.83395L8.49995 4.66846L3.49995 7.87471L3.49995 2.37472Z" fill="#DEB039"/>
<g filter="url(#filter1_i_1_62)">
<path d="M29 84.6197C28.6244 84.5589 28.242 84.1973 28 83.8747C16.5389 67.8291 5.09934 24.6607 0 2.37472L5.50001 7.87472L7.5 7.37472L12.5 13.3747L14.5 10.8747L18 14.3747L19.3993 7.37472C39.8855 20.3245 68.5171 43.0528 70.5 44.3747C71.6605 45.1484 72.2442 45.7194 72.5 46.1217C75.5 46.3747 79.5 49.8747 80 50.8747C75.1667 51.208 63 54.4747 53 64.8747C43 75.2747 36.8333 91.8747 36.5 98.8747C31 97.8747 29.6667 88.3713 29 84.6197Z" fill="#FFD642"/>
</g>
<path d="M33 54.8747C33 58.4646 30.3137 61.3747 27 61.3747C23.6863 61.3747 23 58.4646 23 54.8747C23 51.2849 23.6863 48.3747 27 48.3747C30.3137 48.3747 33 51.2849 33 54.8747Z" fill="#FCE1A7" fill-opacity="0.45"/>
<path d="M33 67.3747C33 69.0316 30.8807 71.8747 29.5 71.8747C28.1193 71.8747 25.5 67.3747 27 67.3747C27 65.7179 29.1193 64.3747 30.5 64.3747C31.8807 64.3747 33 65.7179 33 67.3747Z" fill="#FCE1A7" fill-opacity="0.45"/>
<path d="M39 79.8747C39 80.7031 38.5523 81.3747 38 81.3747C37.4477 81.3747 36 80.2031 36 79.3747C36 78.5463 37.4477 78.3747 38 78.3747C38.5523 78.3747 39 79.0463 39 79.8747Z" fill="#FCE1A7" fill-opacity="0.45"/>
<path d="M35.2724 87.4879C36.0101 88.655 35.9509 90.0166 35.14 90.5292C34.3291 91.0418 34.2378 90.0418 33.5 88.8747C32.7622 87.7077 32.6891 86.8873 33.5 86.3747C34.3109 85.8621 34.5346 86.3208 35.2724 87.4879Z" fill="#FCE1A7" fill-opacity="0.45"/>
<defs>
<filter id="filter0_i_1_62" x="30" y="49.3745" width="95.767" height="72.643" filterUnits="userSpaceOnUse" color-interpolation-filters="sRGB">
<feFlood flood-opacity="0" result="BackgroundImageFix"/>
<feBlend mode="normal" in="SourceGraphic" in2="BackgroundImageFix" result="shape"/>
<feColorMatrix in="SourceAlpha" type="matrix" values="0 0 0 0 0 0 0 0 0 0 0 0 0 0 0 0 0 0 127 0" result="hardAlpha"/>
<feOffset dx="-8" dy="-1"/>
<feGaussianBlur stdDeviation="2"/>
<feComposite in2="hardAlpha" operator="arithmetic" k2="-1" k3="1"/>
<feColorMatrix type="matrix" values="0 0 0 0 0.98 0 0 0 0 0.539 0 0 0 0 0.630528 0 0 0 0.45 0"/>
<feBlend mode="normal" in2="shape" result="effect1_innerShadow_1_62"/>
</filter>
<filter id="filter1_i_1_62" x="0" y="2.37472" width="80" height="100.5" filterUnits="userSpaceOnUse" color-interpolation-filters="sRGB">
<feFlood flood-opacity="0" result="BackgroundImageFix"/>
<feBlend mode="normal" in="SourceGraphic" in2="BackgroundImageFix" result="shape"/>
<feColorMatrix in="SourceAlpha" type="matrix" values="0 0 0 0 0 0 0 0 0 0 0 0 0 0 0 0 0 0 127 0" result="hardAlpha"/>
<feOffset dy="10"/>
<feGaussianBlur stdDeviation="2"/>
<feComposite in2="hardAlpha" operator="arithmetic" k2="-1" k3="1"/>
<feColorMatrix type="matrix" values="0 0 0 0 0.996667 0 0 0 0 0.781131 0 0 0 0 0.231725 0 0 0 0.75 0"/>
<feBlend mode="normal" in2="shape" result="effect1_innerShadow_1_62"/>
</filter>
</defs>
</svg>
