<svg width="100" height="100" viewBox="0 0 100 100" fill="none" xmlns="http://www.w3.org/2000/svg">
<rect width="100" height="100" fill="#C07C01"/>
<path d="M100 38.5C83.7297 27.9173 25.9004 17.1234 0 14V100L100 99.5V38.5Z" fill="#FFB76F"/>
<path d="M98.0392 50L0 58.5C17.1667 52.5 54.2 36.9 65 22.5L93 34.5C93 53.5 91.1765 43.5 98.0392 50Z" fill="#C27F0A"/>
<path d="M46.4755 20.3911C46.4755 21.4573 45.3317 21.8047 44.7598 21.8451V23.1779C47.1127 23.4687 47.946 21.6835 48.0686 20.7546L48.3137 19.0583C48.4362 18.2101 48.4362 17.4427 48.3137 17.1196C47.5784 16.1503 46.598 16.8773 46.598 17.9678L46.4755 20.3911Z" fill="#117B39"/>
<path d="M44.6373 13.6058L44.8824 13.3635M45.0049 14.454L45.25 14.2117M45.0049 15.3021L45.3726 15.4233M44.8824 16.2715L45.25 16.1503M44.8824 16.9985H45.25M44.8824 17.9678L45.1275 17.8466M44.8824 18.6948H45.1275M44.8824 19.5429L45.25 19.4218M43.7794 13.2423V13M42.6765 13.6058L42.5539 13.3635M42.3088 14.454L41.9412 14.0905M42.3088 15.3021L41.9412 15.181M42.3088 16.2715L41.9412 16.5138M42.3088 17.4831L41.9412 17.362M42.3088 18.4524L42.0637 18.3313M42.4314 19.3006L41.9412 19.5429M42.4314 20.3911L41.9412 20.5123M42.4314 21.2392L42.0637 21.1181M42.4314 22.3297L42.0637 22.4509M42.4314 23.2991L42.0637 23.4202M42.4314 24.3895L42.0637 24.2684M42.1863 24.8742V24.6319M41.5735 24.753L41.6961 24.5107M41.2059 24.3895L41.451 24.2684M41.0833 23.9049H41.3284M41.0833 23.2991L41.451 23.4202M41.0833 22.8144L41.5735 22.6932M41.2059 22.2086L41.5735 22.0874M41.2059 21.4816L41.451 21.2392M40.9608 20.9969L41.0833 20.7546M39.6127 20.8758L39.3676 20.7546M39.3676 21.4816L39.1225 21.3604M39.3676 22.3297L39.1225 22.2086M39.3676 23.0567L39 23.1779M39.4902 23.7837L39.1225 23.6626M39.6127 24.3895L39.3676 24.5107M39.9804 25.1165L39.7353 25.3589M40.7157 25.6012L40.348 25.8435M41.2059 25.8435V26.0859M41.9412 25.9647V26.3282M42.5539 26.4494L42.3088 26.3282M42.5539 27.5398L42.1863 27.4187M42.6765 28.2668L42.3088 28.388" stroke="#AFD973" stroke-width="0.3"/>
<path d="M41.1962 23.6642C41.1962 24.7297 42.1831 24.9961 42.6765 24.9961V25.9647L40.927 25.7226C39.2045 25.5288 39.1327 22.7359 39.3122 21.3637C39.5338 19.6686 41.7345 20.395 41.3308 21.9691C41.2859 22.0902 41.1962 22.5987 41.1962 23.6642Z" fill="#117B39"/>
<path d="M44.7598 23.7837L45.1275 23.6626M44.7598 24.5107L45.0049 24.6319M44.6373 25.48L45.0049 25.3589M44.6373 26.3282L45.0049 26.4494M44.6373 27.1764H45.0049M44.6373 27.9034L45.0049 27.7822M44.6373 28.388L44.8824 28.5092M45.1275 23.0567V23.2991M45.7402 23.0567V23.4202M44.7598 21.3604C44.7598 21.2635 45.0049 21.2393 45.1275 21.2393M44.7598 20.6334H45.1275M45.3726 21.4816V21.7239M45.7402 21.2393L45.9853 21.4816M46.1079 20.7546L46.4755 21.1181M46.1079 20.2699L46.4755 20.3911M46.2304 19.5429L46.5981 19.6641M46.2304 18.9371H46.5981M46.353 18.089L46.5981 18.3313M46.4755 17.4831L46.7206 17.6043M46.7206 16.7561L47.0882 16.9985M47.701 16.3926V16.7561M48.3137 16.635L48.1912 16.9985M48.5588 17.4831L48.8039 17.362M48.4363 18.2101H48.8039M48.1912 18.9371H48.5588M48.1912 19.4218L48.5588 19.6641M48.0686 20.1488H48.3137M47.9461 20.7546H48.3137M47.8235 21.3604L48.0686 21.2393M47.5784 21.9662H47.8235M47.0882 22.4509C47.1863 22.4509 47.2925 22.5317 47.3333 22.5721M46.4755 22.8144L46.5981 23.1779" stroke="#AFD973" stroke-width="0.3"/>
<path d="M39.8578 20.9969C39.5719 22.4913 39.9068 25.5527 42.5539 25.8435M40.7156 20.9969C40.4705 22.3297 40.348 25.2377 42.5539 25.3589M44.6372 22.3297C44.6372 22.2086 47.4558 22.8144 47.3333 17.1196M48.0686 17.2408C47.946 19.0583 47.4558 23.1779 44.6372 22.8144" stroke="#AFD973" stroke-width="0.3"/>
<path d="M42.1863 14.6964L42.5539 28.2669C42.5539 30.2055 44.6373 29.9632 44.6373 28.2669L45.0049 14.6964C45.0049 12.5154 42.1863 12.7577 42.1863 14.6964Z" fill="#117B39"/>
<path fill-rule="evenodd" clip-rule="evenodd" d="M43.0273 13.322C43.0656 15.8485 43.1077 19.357 43.1208 22.4319C43.1279 24.1135 43.1264 25.6648 43.1108 26.8546C43.1031 27.4496 43.0918 27.9534 43.0764 28.3374C43.0608 28.727 43.0412 28.9804 43.0197 29.0846L43.3135 29.1453C43.341 29.0122 43.3608 28.732 43.3761 28.3495C43.3917 27.9614 43.403 27.4546 43.4108 26.8585C43.4264 25.6661 43.4279 24.1128 43.4208 22.4306C43.4075 19.3078 43.3643 15.7385 43.3255 13.2036C43.2228 13.232 43.1226 13.2716 43.0273 13.322ZM43.9886 13.1763C43.9047 18.6036 43.7519 28.6036 43.7519 29.115H44.0519C44.0519 28.6095 44.2029 18.7226 44.2872 13.2731C44.1917 13.2287 44.0914 13.1966 43.9886 13.1763Z" fill="#AFD973"/>
<path d="M0 58.5C52.766 51.6763 88.6525 20.9304 100 14V100H0V58.5Z" fill="#FFB76F"/>
<path d="M73.021 52.5014C73.021 54.5934 70.8457 55.2749 69.7581 55.3542V57.9692C74.233 58.5397 75.8178 55.0372 76.0509 53.2146L76.517 49.8864C76.7501 48.2223 76.7501 46.7167 76.517 46.0827C75.1186 44.1809 73.2541 45.6073 73.2541 47.7468L73.021 52.5014Z" fill="#117B39"/>
<path d="M69.525 39.1886L69.9911 38.7132M70.2242 40.8527L70.6903 40.3773M70.2242 42.5168L70.9234 42.7546M69.9911 44.4187L70.6903 44.1809M69.9911 45.8451H70.6903M69.9911 47.7469L70.4573 47.5092M69.9911 49.1733H70.4573M69.9911 50.8374L70.6903 50.5996M67.8935 38.4755V38M65.7959 39.1886L65.5629 38.7132M65.0967 40.8527L64.3975 40.1396M65.0967 42.5168L64.3975 42.2791M65.0967 44.4187L64.3975 44.8941M65.0967 46.796L64.3975 46.5582M65.0967 48.6978L64.6306 48.4601M65.3298 50.3619L64.3975 50.8374M65.3298 52.5015L64.3975 52.7392M65.3298 54.1656L64.6306 53.9278M65.3298 56.3051L64.6306 56.5428M65.3298 58.2069L64.6306 58.4447M65.3298 60.3465L64.6306 60.1088M64.8636 61.2974V60.822M63.6983 61.0597L63.9314 60.5842M62.9991 60.3465L63.4652 60.1088M62.766 59.3956H63.2322M62.766 58.2069L63.4652 58.4447M62.766 57.256L63.6983 57.0183M62.9991 56.0674L63.6983 55.8297M62.9991 54.641L63.4652 54.1656M62.533 53.6901L62.766 53.2146M59.9692 53.4524L59.5031 53.2146M59.5031 54.641L59.037 54.4033M59.5031 56.3051L59.037 56.0674M59.5031 57.7315L58.8039 57.9692M59.7362 59.1579L59.037 58.9201M59.9692 60.3465L59.5031 60.5842M60.6684 61.7729L60.2023 62.2483M62.0668 62.7238L61.3676 63.1993M62.9991 63.1993V63.6747M64.3975 63.437V64.1502M65.5629 64.3879L65.0967 64.1502M65.5629 66.5275L64.8636 66.2897M65.7959 67.9538L65.0967 68.1916" stroke="#AFD973" stroke-width="0.3"/>
<path d="M62.9806 58.9234C62.9806 61.0139 64.8575 61.5365 65.7959 61.5365V63.437L62.4688 62.9619C59.1928 62.5818 59.0563 57.1021 59.3975 54.4097C59.8191 51.0838 64.0044 52.509 63.2366 55.5975C63.1512 55.8351 62.9806 56.8328 62.9806 58.9234Z" fill="#117B39"/>
<path d="M69.7581 59.1578L70.4573 58.9201M69.7581 60.5842L70.2242 60.8219M69.525 62.486L70.2242 62.2483M69.525 64.1501L70.2242 64.3879M69.525 65.8142H70.2242M69.525 67.2406L70.2242 67.0029M69.525 68.1915L69.9912 68.4293M70.4573 57.7315V58.2069M71.6226 57.7315V58.4446M69.7581 54.4033C69.7581 54.2131 70.2242 54.1655 70.4573 54.1655M69.7581 52.9769H70.4573M70.9234 54.641V55.1164M71.6226 54.1655L72.0888 54.641M72.3218 53.2146L73.021 53.9278M72.3218 52.2637L73.021 52.5014M72.5549 50.8373L73.2541 51.0751M72.5549 49.6487H73.2541M72.788 47.9846L73.2541 48.46M73.021 46.7959L73.4872 47.0337M73.4872 45.3696L74.1864 45.845M75.3517 44.6564V45.3696M76.517 45.1318L76.284 45.845M76.9832 46.7959L77.4493 46.5582M76.7501 48.2223H77.4493M76.284 49.6487H76.9832M76.284 50.5996L76.9832 51.0751M76.0509 52.026H76.517M75.8178 53.2146H76.517M75.5848 54.4033L76.0509 54.1655M75.1186 55.5919H75.5848M74.1864 56.5428C74.3728 56.5428 74.5748 56.7013 74.6525 56.7805M73.021 57.256L73.2541 57.9692" stroke="#AFD973" stroke-width="0.3"/>
<path d="M60.4354 53.6901C59.8915 56.6221 60.5286 62.6287 65.5629 63.1992M62.0668 53.6901C61.6007 56.3051 61.3676 62.0106 65.5628 62.2483M69.525 56.3051C69.525 56.0674 74.8856 57.256 74.6525 46.0828M76.0509 46.3205C75.8178 49.8864 74.8856 57.9692 69.525 57.256" stroke="#AFD973" stroke-width="0.5"/>
<path d="M64.8636 41.3282L65.5628 67.9539C65.5628 71.7575 69.525 71.282 69.525 67.9539L70.2242 41.3282C70.2242 37.0491 64.8636 37.5245 64.8636 41.3282Z" fill="#117B39"/>
<path fill-rule="evenodd" clip-rule="evenodd" d="M66.4982 38.6133C66.5712 43.5717 66.6514 50.4649 66.6763 56.5054C66.6899 59.8049 66.6869 62.8488 66.6574 65.1838C66.6426 66.3514 66.6211 67.3402 66.5918 68.0945C66.5621 68.8576 66.5249 69.3595 66.483 69.5688L66.9733 69.667C67.0246 69.4107 67.0622 68.8656 67.0914 68.1139C67.121 67.3533 67.1425 66.3595 67.1573 65.1901C67.187 62.851 67.1899 59.8038 67.1763 56.5034C67.151 50.3806 67.069 43.3827 66.9952 38.4099C66.8247 38.461 66.6581 38.5289 66.4982 38.6133ZM68.3267 38.3535C68.167 49.0038 67.8766 68.6154 67.8766 69.6179H68.3766C68.3766 68.6252 68.664 49.208 68.8242 38.5195C68.6643 38.446 68.4974 38.3908 68.3267 38.3535Z" fill="#AFD973"/>
<g filter="url(#filter0_i_26_2704)">
<path d="M58.3339 73.6828C57.7996 73.7738 56.4191 73.2655 55.7957 73C54.7715 73.0759 52.6163 73.2162 52.1888 73.1707C51.7613 73.1252 51.3872 73.4931 51.2536 73.6828C51.2091 73.8534 51.0399 74.2517 50.7193 74.4793C50.3986 74.7069 49.9177 74.9914 49.7173 75.1052C49.6726 75.1613 49.6304 75.2182 49.5906 75.2759C48.7267 76.5261 48.9944 78.0938 49.2498 78.7465C49.2943 78.7655 49.4902 78.8945 49.9177 79.2586C50.3452 79.6227 50.8529 79.7517 51.0532 79.7707H54.5266C56.3301 80.3965 59.4694 79.5431 59.5362 79.5431C61.3397 78.5758 60.605 77.0396 60.6718 76.5276C60.7252 76.1179 60.2042 75.4845 59.937 75.219C59.6253 74.669 58.8683 73.5917 58.3339 73.6828Z" fill="#B17B59"/>
</g>
<g filter="url(#filter1_i_26_2704)">
<path d="M22.1113 41.1951C21.9332 41.2211 21.473 41.0759 21.2652 41C20.9238 41.0217 20.2054 41.0618 20.0629 41.0488C19.9204 41.0358 19.7957 41.1409 19.7512 41.1951C19.7364 41.2438 19.68 41.3576 19.5731 41.4227C19.4662 41.4877 19.3059 41.569 19.2391 41.6015C19.2242 41.6175 19.2101 41.6338 19.1969 41.6502C18.9089 42.0074 18.9981 42.4554 19.0833 42.6419C19.0981 42.6473 19.1634 42.6841 19.3059 42.7882C19.4484 42.8922 19.6176 42.9291 19.6844 42.9345H20.8422C21.4434 43.1133 22.4898 42.8694 22.5121 42.8694C23.1132 42.5931 22.8683 42.1542 22.8906 42.0079C22.9084 41.8908 22.7347 41.7098 22.6457 41.634C22.5418 41.4768 22.2894 41.1691 22.1113 41.1951Z" fill="#AD7856"/>
</g>
<path d="M44.1176 100C55.3922 100 74.5098 95.0172 100 83V100H44.1176Z" fill="#C07C01"/>
<path d="M55.8824 100C44.6078 100 25.4902 95.0172 0 83V100H55.8824Z" fill="#C07C01"/>
<path d="M12.9298 30.5836C13.7803 30.9405 14.2764 32.1202 14.4182 32.6654C14.4182 33.0223 14.1347 34.3507 13.9929 34.9703L13.6386 38.539L13.7094 39.9517C13.6858 40.373 13.7094 41.3048 13.9929 41.6617C14.2764 42.0186 14.2055 42.7026 14.1347 43H16.3629C15.3707 42.1822 15.2686 40.3234 14.9851 39.7286C14.7583 39.2528 15.0796 36.5068 15.2686 35.1933C15.245 34.7472 15.3678 33.5279 16.0482 32.2193C16.7286 30.9108 18.6941 30.9306 19.5918 31.1041C20.1351 31.1784 21.2785 31.4907 21.5053 32.145C21.7304 32.7942 21.8661 32.9281 22.0188 33.0672C22.0562 33.1165 22.0975 33.1572 22.1432 33.1859C22.0993 33.1399 22.0585 33.1034 22.0188 33.0672C21.8241 32.8105 21.7378 32.3202 21.7179 32.0706C23.2062 32.5911 24.6237 32.0706 24.9072 31.9963C25.1907 31.9219 25.9702 32.5167 26.1829 32.5911C26.112 32.368 25.2615 31.9963 25.0489 31.8476C25.219 31.5502 26.7735 31.1289 27.5294 30.9554C26.9624 30.9802 25.6726 31.1338 25.0489 31.5502C24.2693 32.0706 23.1354 32.0706 22.214 31.8476C21.1368 31.0149 20.1588 30.7571 19.8044 30.7323C19.2138 30.7819 18.2169 30.8067 18.9539 30.5093C19.691 30.2119 20.4895 29.3941 20.7966 29.0223L20.584 29.0967V28.7993C20.017 29.5428 18.2452 30.5836 17.5365 30.5836C16.8278 30.5836 15.6938 31.6989 15.623 31.7732C15.2261 31 15.7883 30.4102 16.1191 30.2119C16.3081 30.0136 16.7711 29.4238 17.1113 28.6506C17.5365 27.684 17.5365 25.3792 17.5365 25.3048C17.7902 24.1337 18.5927 23.9075 19.0803 23.944C19.1404 23.9523 19.1952 23.9602 19.2374 23.9665C19.1903 23.9561 19.1374 23.9482 19.0803 23.944C18.9048 23.9197 18.684 23.8922 18.5996 23.8922C18.4578 23.6691 19.6627 23.0988 19.8044 23.0743C18.5571 23.2528 17.6782 24.3383 17.3948 24.8587C17.3025 24.1809 16.8596 23.5885 16.5324 23.2579C16.4557 23.162 16.3863 23.103 16.3317 23.0743C16.3888 23.1205 16.4576 23.1824 16.5324 23.2579C16.7875 23.5771 17.1222 24.3044 17.253 25.6766C17.4656 27.9071 16.686 28.0558 16.686 28.4275C16.686 28.7993 16.0482 29.6915 15.623 30.0632C15.2828 30.3606 15.1505 30.7323 15.1269 30.881C15.0796 31.1041 14.9426 31.5056 14.7725 31.3271C14.5599 31.1041 13.5677 29.4684 13.2842 29.0967C13.0574 28.7993 13.0952 28.031 13.1425 27.684C13.0291 28.2788 12.9062 28.5266 12.859 28.5762C12.5282 28.2788 11.725 27.6245 11.1581 27.3866C10.4493 27.0892 10.3785 26.5688 10.3785 26.4944C10.2651 25.6022 11.5597 24.7348 12.2211 24.4126C11.6305 24.6853 10.421 25.3941 10.3076 26.0483C10.1658 26.8662 10.0241 26.5688 9.95323 26.6431C9.21617 26.3457 8.9374 25.0818 8.89016 24.487C8.71719 24.245 9.00995 23.4213 9.12785 23.1154C9.14471 23.0742 9.16014 23.0354 9.17364 23C9.17271 23.0024 9.15487 23.0453 9.12785 23.1154C8.96762 23.5073 8.67754 24.1223 8.67754 24.1896C8.56415 24.2491 8.11057 23.8674 7.89795 23.6691C8.06804 23.9071 8.4413 24.2639 8.60667 24.4126C8.72479 25.1314 9.14529 26.6283 9.88236 26.8662C10.8037 27.1636 12.5046 28.7993 12.7172 28.8736C13.7803 30.2119 13.2133 30.0632 13.2133 30.2119C12.0794 29.8401 9.88236 30.0632 9.38626 30.0632C6.55139 29.7658 6.69313 28.1053 7.11836 27.3123C6.76401 27.6097 6.69313 28.4275 6.69313 28.6506C6.46634 28.4721 5.79542 27.1884 5.48831 26.5688C5.88519 29.2454 8.25231 30.2119 9.38626 30.3606C9.0319 30.8067 7.26011 31.4758 7.11836 31.6245C4.7796 32.145 4.10151 31.5884 4.00001 31.4758C4.07088 31.6245 4.7796 32.0706 4.85047 32.0706C5.58753 32.2491 6.19703 32.0954 6.40965 31.9963C6.62226 31.9219 7.06167 31.803 7.11836 31.9219C7.18924 32.0706 6.47737 33.4089 6.33877 33.5576C6.55139 33.4089 7.47272 31.9219 7.47272 31.8476C7.75621 31.4312 9.19727 30.8315 9.88236 30.5836C10.5438 30.4349 12.0794 30.2268 12.9298 30.5836Z" fill="#957B59"/>
<path d="M0 0H100V100H0V0Z" fill="white" fill-opacity="0.55"/>
<defs>
<filter id="filter0_i_26_2704" x="45" y="72" width="15.7647" height="8" filterUnits="userSpaceOnUse" color-interpolation-filters="sRGB">
<feFlood flood-opacity="0" result="BackgroundImageFix"/>
<feBlend mode="normal" in="SourceGraphic" in2="BackgroundImageFix" result="shape"/>
<feColorMatrix in="SourceAlpha" type="matrix" values="0 0 0 0 0 0 0 0 0 0 0 0 0 0 0 0 0 0 127 0" result="hardAlpha"/>
<feOffset dx="-8" dy="-1"/>
<feGaussianBlur stdDeviation="2"/>
<feComposite in2="hardAlpha" operator="arithmetic" k2="-1" k3="1"/>
<feColorMatrix type="matrix" values="0 0 0 0 0.333333 0 0 0 0 0.188235 0 0 0 0 0.105882 0 0 0 0.35 0"/>
<feBlend mode="normal" in2="shape" result="effect1_innerShadow_26_2704"/>
</filter>
<filter id="filter1_i_26_2704" x="19" y="41" width="3.92157" height="2" filterUnits="userSpaceOnUse" color-interpolation-filters="sRGB">
<feFlood flood-opacity="0" result="BackgroundImageFix"/>
<feBlend mode="normal" in="SourceGraphic" in2="BackgroundImageFix" result="shape"/>
<feColorMatrix in="SourceAlpha" type="matrix" values="0 0 0 0 0 0 0 0 0 0 0 0 0 0 0 0 0 0 127 0" result="hardAlpha"/>
<feOffset dx="-8" dy="-1"/>
<feGaussianBlur stdDeviation="2"/>
<feComposite in2="hardAlpha" operator="arithmetic" k2="-1" k3="1"/>
<feColorMatrix type="matrix" values="0 0 0 0 0.568627 0 0 0 0 0.380392 0 0 0 0 0.262745 0 0 0 0.35 0"/>
<feBlend mode="normal" in2="shape" result="effect1_innerShadow_26_2704"/>
</filter>
</defs>
</svg>
