<svg width="100" height="100" viewBox="0 0 100 100" fill="none" xmlns="http://www.w3.org/2000/svg">
<rect width="100" height="100" fill="#9FD138"/>
<path d="M100 38.5C83.7297 27.9173 25.9004 17.1234 0 14V100L100 99.5V38.5Z" fill="#C6DC4A"/>
<path d="M98.0392 53.5L0 58.5C17.1667 52.5 54.7 38.4 65.5 24L98.0392 36C98.0392 55 91.1765 47 98.0392 53.5Z" fill="#9FD138"/>
<path d="M0 58.5C52.766 51.6763 88.6525 20.9304 100 14V100H0V58.5Z" fill="#C6DC4A"/>
<path d="M55.8824 100C44.6078 100 25.4902 95.0172 0 83V100H55.8824Z" fill="#9FD138"/>
<path d="M44 100C55.2745 100 74.3921 95.0172 99.8823 83V100H44Z" fill="#9FD138"/>
<path d="M88.8824 36.5885C87.3529 36.8321 85.9902 34.9643 85.5 34C84.5588 36.5581 82.7549 36.7915 81.9706 36.5885C82.2059 37.1976 83.6373 37.4513 84.3235 37.5021C83.0294 39.4511 81.0392 39.8368 80.2059 39.7861C80.7941 41.0042 82.4118 41.0042 83.1471 40.8519C82.6765 41.7046 80.1078 42.9329 78.8824 43.4404C79.4706 44.4149 81.1863 44.4555 81.9706 44.354C81.2647 46.1812 79.4216 46.435 78.5882 46.3335C78.8235 47.308 80.1569 47.7546 80.7941 47.8561C80.2059 49.0742 78.6863 50.1908 78 50.5969C79.1765 51.6932 81.1373 51.2567 81.9706 50.9014L80.7941 52.4241C83.5882 53.6422 85.3529 51.0537 85.5 51.0537C86.4412 53.0027 88.9314 52.7793 90.0588 52.4241L89.0294 50.9014C90.9412 52.4241 92.9206 50.4629 93 50.4446C92.2941 50.6882 90.8431 48.8205 90.2059 47.8561C90.9118 48.2215 91.9706 46.9933 92.4118 46.3335C91.1176 46.8207 89.6176 45.2169 89.0294 44.354C89.6176 44.8413 91.3333 43.948 92.1176 43.4404C91.1765 43.6841 88.8824 41.8163 87.8529 40.8519C89.0294 41.3392 90.2059 40.4459 90.6471 39.9383C89.3529 40.182 87.3627 38.4157 86.5294 37.5021C87.2353 37.8675 88.3922 37.0453 88.8824 36.5885Z" fill="#8AD34E"/>
<path d="M84.75 53.5V51.0714L85.6071 50.5L86.25 51.0714V53.5H84.75Z" fill="#574418"/>
<path d="M35.8039 16.3805C34.9882 16.5105 34.2614 15.5143 34 15C33.498 16.3643 32.5359 16.4888 32.1176 16.3805C32.2431 16.7054 33.0065 16.8407 33.3725 16.8678C32.6824 17.9072 31.6209 18.113 31.1765 18.0859C31.4902 18.7356 32.3529 18.7356 32.7451 18.6544C32.4941 19.1091 31.1242 19.7642 30.4706 20.0349C30.7843 20.5546 31.6993 20.5763 32.1176 20.5221C31.7412 21.4966 30.7582 21.632 30.3137 21.5778C30.4392 22.0976 31.1503 22.3358 31.4902 22.3899C31.1765 23.0396 30.366 23.6351 30 23.8517C30.6275 24.4364 31.6732 24.2036 32.1176 24.0141L31.4902 24.8262C32.9804 25.4758 33.9216 24.0953 34 24.0953C34.502 25.1348 35.8301 25.0157 36.4314 24.8262L35.8824 24.0141C36.902 24.8262 37.9576 23.7802 38 23.7705C37.6235 23.9004 36.8497 22.9042 36.5098 22.3899C36.8863 22.5848 37.451 21.9297 37.6863 21.5778C36.9961 21.8377 36.1961 20.9823 35.8824 20.5221C36.1961 20.782 37.1111 20.3056 37.5294 20.0349C37.0275 20.1648 35.8039 19.1687 35.2549 18.6544C35.8824 18.9142 36.5098 18.4378 36.7451 18.1671C36.0549 18.297 34.9935 17.355 34.549 16.8678C34.9255 17.0627 35.5425 16.6242 35.8039 16.3805Z" fill="#8AD34E"/>
<path d="M33.6 25.4V24.1047L34.0571 23.8L34.4 24.1047V25.4H33.6Z" fill="#574418"/>
<path d="M25.6259 57.7168C23.4299 58.0666 21.4731 55.3847 20.7692 54C19.4178 57.6731 16.8276 58.0083 15.7014 57.7168C16.0392 58.5914 18.0945 58.9558 19.0799 59.0286C17.2217 61.8272 14.364 62.3811 13.1674 62.3082C14.0121 64.0573 16.3348 64.0573 17.3906 63.8387C16.7149 65.063 13.0266 66.8267 11.267 67.5555C12.1116 68.9548 14.5752 69.0131 15.7014 68.8673C14.6878 71.491 12.0412 71.8553 10.8446 71.7096C11.1825 73.1089 13.097 73.7502 14.0121 73.896C13.1674 75.6451 10.9854 77.2484 10 77.8314C11.6893 79.4056 14.5048 78.7788 15.7014 78.2687L14.0121 80.4551C18.0241 82.2042 20.5581 78.4873 20.7692 78.4873C22.1207 81.2859 25.6963 80.9652 27.3152 80.4551L25.8371 78.2687C28.5822 80.4551 31.4244 77.639 31.5385 77.6128C30.5249 77.9626 28.4414 75.2807 27.5264 73.896C28.54 74.4207 30.0603 72.657 30.6938 71.7096C28.8356 72.4092 26.6817 70.1063 25.8371 68.8673C26.6817 69.5669 29.1453 68.2843 30.2715 67.5555C28.9201 67.9053 25.6259 65.2234 24.1478 63.8387C25.8371 64.5383 27.5264 63.2556 28.1599 62.5268C26.3017 62.8767 23.4439 60.3405 22.2474 59.0286C23.2609 59.5534 24.9221 58.3727 25.6259 57.7168Z" fill="#8AD34E"/>
<path d="M19.6923 82V78.5128L20.9231 77.6923L21.8462 78.5128V82H19.6923Z" fill="#574418"/>
<path d="M4.40763 34C3.22247 32.8936 4.90144 24.8723 5.88907 21H10.926C12.5852 24.7617 13 31.234 13 34H4.40763Z" fill="#F0EADC"/>
<path d="M5 21H6.16667H11.125H12L8.5 19L5 21Z" fill="#EB9264"/>
<path d="M9.32432 17.8684L10.1351 17V21.6316H14.4595L15 22.5H10.1351L10.9459 22.7895V27.1316L10.1351 28V22.5L9.59459 23.3684H5.81081L5 22.5H10.1351L9.32432 22.2105V17.8684Z" fill="#DA9F65"/>
<path d="M8 32V34H9V32H8Z" fill="#B0A88F"/>
<circle cx="7.5" cy="25.5" r="1.5" fill="#DBF3ED"/>
<path d="M0 0H100V100H0V0Z" fill="white" fill-opacity="0.45"/>
</svg>
